<?xml version="1.0" encoding="utf-8"?>
<!-- Generator: Adobe Illustrator 21.0.0, SVG Export Plug-In . SVG Version: 6.00 Build 0)  -->
<svg version="1.1" id="Layer_1" xmlns="http://www.w3.org/2000/svg" xmlns:xlink="http://www.w3.org/1999/xlink" x="0px" y="0px"
	 viewBox="0 0 800 800" style="enable-background:new 0 0 800 800;" xml:space="preserve">
<path d="M735.9,0.1H68.5C59.9-0.3,51.3,1,43.2,3.9c-8.1,2.9-15.5,7.4-21.9,13.2C14.9,22.9,9.8,29.9,6.1,37.7C2.5,45.5,0.4,54,0,62.6
	v668.9c0.5,18,7.9,35.1,20.6,47.9c12.7,12.7,29.9,20.1,47.9,20.6h667.4c17.5-0.8,34-8.4,46-21.2s18.4-29.8,18-47.3V62.6
	c0.1-8.4-1.4-16.7-4.6-24.4c-3.2-7.7-7.9-14.8-13.9-20.6c-6-5.9-13.1-10.4-20.9-13.4C752.7,1.1,744.3-0.3,735.9,0.1z M250,667H133.5
	V310.5H250V667z M194.5,256.6c-8.1,0.3-16.2-1.1-23.8-4.1c-7.6-3-14.4-7.5-20.1-13.3c-5.7-5.8-10.2-12.7-13.1-20.3
	c-2.9-7.6-4.3-15.7-3.9-23.8c-0.4-8.2,1-16.4,4-24.1c3-7.7,7.6-14.6,13.4-20.4c5.8-5.8,12.8-10.3,20.5-13.2
	c7.7-2.9,15.9-4.2,24.1-3.8c8.1-0.3,16.2,1.1,23.8,4.1c7.6,3,14.4,7.5,20.1,13.3c5.7,5.8,10.2,12.7,13.1,20.3
	c2.9,7.6,4.3,15.7,3.9,23.8c0.4,8.2-1,16.4-4,24.1c-3,7.7-7.6,14.6-13.4,20.4c-5.8,5.8-12.8,10.3-20.5,13.2
	C210.9,255.7,202.7,257,194.5,256.6z M666.9,667H550V472c0-46.5-16.5-78.5-58-78.5c-12.9,0.1-25.4,4.2-35.9,11.7
	c-10.5,7.5-18.4,18.1-22.6,30.3c-3.2,9.1-4.6,18.8-4,28.5v203h-115V310.5h115v50c10.2-18.8,25.4-34.4,44-45.1
	c18.5-10.7,39.6-16,61-15.4c75.5,0,132.5,50,132.5,156.5V667z"/>
</svg>
