<svg width="1920" height="1594" viewBox="0 0 1920 1594" fill="none" xmlns="http://www.w3.org/2000/svg">
<rect y="-101" width="1920" height="1695" fill="url(#paint0_radial_79_19)" fill-opacity="0.42"/>
<rect y="-101" width="1920" height="1695" fill="url(#paint1_radial_79_19)"/>
<rect y="-101" width="1920" height="1695" fill="url(#paint2_radial_79_19)"/>
<line x1="336" y1="-33" x2="336" y2="881" stroke="white" stroke-opacity="0.25" stroke-width="2"/>
<line x1="286" y1="-33" x2="286" y2="881" stroke="white" stroke-opacity="0.25" stroke-width="2"/>
<line x1="236" y1="-33" x2="236" y2="881" stroke="white" stroke-opacity="0.25" stroke-width="2"/>
<line x1="536" y1="-33" x2="536" y2="881" stroke="white" stroke-opacity="0.25" stroke-width="2"/>
<line x1="486" y1="-33" x2="486" y2="881" stroke="white" stroke-opacity="0.25" stroke-width="2"/>
<line x1="436" y1="-33" x2="436" y2="881" stroke="white" stroke-opacity="0.25" stroke-width="2"/>
<line x1="386" y1="-33" x2="386" y2="881" stroke="white" stroke-opacity="0.25" stroke-width="2"/>
<line x1="736" y1="-33" x2="736" y2="881" stroke="white" stroke-opacity="0.25" stroke-width="2"/>
<line x1="686" y1="-33" x2="686" y2="881" stroke="white" stroke-opacity="0.25" stroke-width="2"/>
<line x1="636" y1="-33" x2="636" y2="881" stroke="white" stroke-opacity="0.25" stroke-width="2"/>
<line x1="586" y1="-33" x2="586" y2="881" stroke="white" stroke-opacity="0.25" stroke-width="2"/>
<line x1="936" y1="-33" x2="936" y2="881" stroke="white" stroke-opacity="0.25" stroke-width="2"/>
<line x1="886" y1="-33" x2="886" y2="881" stroke="white" stroke-opacity="0.25" stroke-width="2"/>
<line x1="836" y1="-33" x2="836" y2="881" stroke="white" stroke-opacity="0.25" stroke-width="2"/>
<line x1="786" y1="-33" x2="786" y2="881" stroke="white" stroke-opacity="0.25" stroke-width="2"/>
<line x1="1136" y1="-33" x2="1136" y2="881" stroke="white" stroke-opacity="0.25" stroke-width="2"/>
<line x1="1086" y1="-33" x2="1086" y2="881" stroke="white" stroke-opacity="0.25" stroke-width="2"/>
<line x1="1036" y1="-33" x2="1036" y2="881" stroke="white" stroke-opacity="0.25" stroke-width="2"/>
<line x1="986" y1="-33" x2="986" y2="881" stroke="white" stroke-opacity="0.25" stroke-width="2"/>
<line x1="1336" y1="-33" x2="1336" y2="881" stroke="white" stroke-opacity="0.25" stroke-width="2"/>
<line x1="1286" y1="-33" x2="1286" y2="881" stroke="white" stroke-opacity="0.25" stroke-width="2"/>
<line x1="1236" y1="-33" x2="1236" y2="881" stroke="white" stroke-opacity="0.25" stroke-width="2"/>
<line x1="1186" y1="-33" x2="1186" y2="881" stroke="white" stroke-opacity="0.25" stroke-width="2"/>
<line x1="1536" y1="-33" x2="1536" y2="881" stroke="white" stroke-opacity="0.25" stroke-width="2"/>
<line x1="1486" y1="-33" x2="1486" y2="881" stroke="white" stroke-opacity="0.25" stroke-width="2"/>
<line x1="1436" y1="-33" x2="1436" y2="881" stroke="white" stroke-opacity="0.25" stroke-width="2"/>
<line x1="1386" y1="-33" x2="1386" y2="881" stroke="white" stroke-opacity="0.25" stroke-width="2"/>
<line x1="1686" y1="-33" x2="1686" y2="881" stroke="white" stroke-opacity="0.25" stroke-width="2"/>
<line x1="1636" y1="-33" x2="1636" y2="881" stroke="white" stroke-opacity="0.25" stroke-width="2"/>
<line x1="1586" y1="-33" x2="1586" y2="881" stroke="white" stroke-opacity="0.25" stroke-width="2"/>
<line x1="236" y1="837" x2="1686" y2="837" stroke="white" stroke-opacity="0.25" stroke-width="2"/>
<line x1="236" y1="787" x2="1686" y2="787" stroke="white" stroke-opacity="0.25" stroke-width="2"/>
<line x1="236" y1="737" x2="1686" y2="737" stroke="white" stroke-opacity="0.25" stroke-width="2"/>
<line x1="236" y1="687" x2="1686" y2="687" stroke="white" stroke-opacity="0.25" stroke-width="2"/>
<line x1="236" y1="637" x2="1686" y2="637" stroke="white" stroke-opacity="0.25" stroke-width="2"/>
<line x1="236" y1="587" x2="1686" y2="587" stroke="white" stroke-opacity="0.25" stroke-width="2"/>
<line x1="236" y1="537" x2="1686" y2="537" stroke="white" stroke-opacity="0.25" stroke-width="2"/>
<line x1="236" y1="487" x2="1686" y2="487" stroke="white" stroke-opacity="0.25" stroke-width="2"/>
<line x1="236" y1="437" x2="1686" y2="437" stroke="white" stroke-opacity="0.25" stroke-width="2"/>
<line x1="236" y1="387" x2="1686" y2="387" stroke="white" stroke-opacity="0.25" stroke-width="2"/>
<line x1="236" y1="337" x2="1686" y2="337" stroke="white" stroke-opacity="0.25" stroke-width="2"/>
<line x1="236" y1="287" x2="1686" y2="287" stroke="white" stroke-opacity="0.25" stroke-width="2"/>
<line x1="236" y1="237" x2="1686" y2="237" stroke="white" stroke-opacity="0.25" stroke-width="2"/>
<line x1="236" y1="187" x2="1686" y2="187" stroke="white" stroke-opacity="0.25" stroke-width="2"/>
<line x1="236" y1="137" x2="1686" y2="137" stroke="white" stroke-opacity="0.25" stroke-width="2"/>
<line x1="236" y1="87" x2="1686" y2="87" stroke="white" stroke-opacity="0.25" stroke-width="2"/>
<line x1="236" y1="37" x2="1686" y2="37" stroke="white" stroke-opacity="0.25" stroke-width="2"/>
<defs>
<radialGradient id="paint0_radial_79_19" cx="0" cy="0" r="1" gradientUnits="userSpaceOnUse" gradientTransform="translate(844.5 443.5) rotate(156.952) scale(499.36 440.79)">
<stop offset="0.00144212" stop-color="#C8BDFF"/>
<stop offset="1" stop-color="#C8BDFF" stop-opacity="0"/>
</radialGradient>
<radialGradient id="paint1_radial_79_19" cx="0" cy="0" r="1" gradientUnits="userSpaceOnUse" gradientTransform="translate(1183 540.5) rotate(145.998) scale(433.643 491.207)">
<stop offset="0.399038" stop-color="#C6DAFF"/>
<stop offset="1" stop-color="white" stop-opacity="0"/>
</radialGradient>
<radialGradient id="paint2_radial_79_19" cx="0" cy="0" r="1" gradientUnits="userSpaceOnUse" gradientTransform="translate(960 377) rotate(90) scale(256.5 290.549)">
<stop offset="0.543269" stop-color="#FFC9AC"/>
<stop offset="1" stop-color="#FFBF97" stop-opacity="0"/>
</radialGradient>
</defs>
</svg>
