<svg width="1452" height="881" viewBox="0 0 1452 881" fill="none" xmlns="http://www.w3.org/2000/svg">
<line x1="101" y1="-33" x2="101" y2="881" stroke="white" stroke-width="2"/>
<line x1="51" y1="-33" x2="51" y2="881" stroke="white" stroke-width="2"/>
<line x1="1" y1="-33" x2="0.99996" y2="881" stroke="white" stroke-width="2"/>
<line x1="301" y1="-33" x2="301" y2="881" stroke="white" stroke-width="2"/>
<line x1="251" y1="-33" x2="251" y2="881" stroke="white" stroke-width="2"/>
<line x1="201" y1="-33" x2="201" y2="881" stroke="white" stroke-width="2"/>
<line x1="151" y1="-33" x2="151" y2="881" stroke="white" stroke-width="2"/>
<line x1="501" y1="-33" x2="501" y2="881" stroke="white" stroke-width="2"/>
<line x1="451" y1="-33" x2="451" y2="881" stroke="white" stroke-width="2"/>
<line x1="401" y1="-33" x2="401" y2="881" stroke="white" stroke-width="2"/>
<line x1="351" y1="-33" x2="351" y2="881" stroke="white" stroke-width="2"/>
<line x1="701" y1="-33" x2="701" y2="881" stroke="white" stroke-width="2"/>
<line x1="651" y1="-33" x2="651" y2="881" stroke="white" stroke-width="2"/>
<line x1="601" y1="-33" x2="601" y2="881" stroke="white" stroke-width="2"/>
<line x1="551" y1="-33" x2="551" y2="881" stroke="white" stroke-width="2"/>
<line x1="901" y1="-33" x2="901" y2="881" stroke="white" stroke-width="2"/>
<line x1="851" y1="-33" x2="851" y2="881" stroke="white" stroke-width="2"/>
<line x1="801" y1="-33" x2="801" y2="881" stroke="white" stroke-width="2"/>
<line x1="751" y1="-33" x2="751" y2="881" stroke="white" stroke-width="2"/>
<line x1="1101" y1="-33" x2="1101" y2="881" stroke="white" stroke-width="2"/>
<line x1="1051" y1="-33" x2="1051" y2="881" stroke="white" stroke-width="2"/>
<line x1="1001" y1="-33" x2="1001" y2="881" stroke="white" stroke-width="2"/>
<line x1="951" y1="-33" x2="951" y2="881" stroke="white" stroke-width="2"/>
<line x1="1301" y1="-33" x2="1301" y2="881" stroke="white" stroke-width="2"/>
<line x1="1251" y1="-33" x2="1251" y2="881" stroke="white" stroke-width="2"/>
<line x1="1201" y1="-33" x2="1201" y2="881" stroke="white" stroke-width="2"/>
<line x1="1151" y1="-33" x2="1151" y2="881" stroke="white" stroke-width="2"/>
<line x1="1451" y1="-33" x2="1451" y2="881" stroke="white" stroke-width="2"/>
<line x1="1401" y1="-33" x2="1401" y2="881" stroke="white" stroke-width="2"/>
<line x1="1351" y1="-33" x2="1351" y2="881" stroke="white" stroke-width="2"/>
<line x1="1" y1="837" x2="1451" y2="837" stroke="white" stroke-width="2"/>
<line x1="1" y1="787" x2="1451" y2="787" stroke="white" stroke-width="2"/>
<line x1="1" y1="737" x2="1451" y2="737" stroke="white" stroke-width="2"/>
<line x1="1" y1="687" x2="1451" y2="687" stroke="white" stroke-width="2"/>
<line x1="1" y1="637" x2="1451" y2="637" stroke="white" stroke-width="2"/>
<line x1="1" y1="587" x2="1451" y2="587" stroke="white" stroke-width="2"/>
<line x1="1" y1="537" x2="1451" y2="537" stroke="white" stroke-width="2"/>
<line x1="1" y1="487" x2="1451" y2="487" stroke="white" stroke-width="2"/>
<line x1="1" y1="437" x2="1451" y2="437" stroke="white" stroke-width="2"/>
<line x1="1" y1="387" x2="1451" y2="387" stroke="white" stroke-width="2"/>
<line x1="1" y1="337" x2="1451" y2="337" stroke="white" stroke-width="2"/>
<line x1="1" y1="287" x2="1451" y2="287" stroke="white" stroke-width="2"/>
<line x1="1" y1="237" x2="1451" y2="237" stroke="white" stroke-width="2"/>
<line x1="1" y1="187" x2="1451" y2="187" stroke="white" stroke-width="2"/>
<line x1="1" y1="137" x2="1451" y2="137" stroke="white" stroke-width="2"/>
<line x1="1" y1="87" x2="1451" y2="87" stroke="white" stroke-width="2"/>
<line x1="1" y1="37" x2="1451" y2="37" stroke="white" stroke-width="2"/>
</svg>
