<svg width="2098" height="97" viewBox="0 0 2098 97" fill="none" xmlns="http://www.w3.org/2000/svg">
<rect x="1" y="1" width="2096" height="95" fill="#3C468E" stroke="white" stroke-width="2"/>
<path d="M435.578 59.0155C435.098 59.0155 434.708 58.8755 434.408 58.5955C434.128 58.2955 433.988 57.9255 433.988 57.4855V39.5455C433.988 39.1055 434.138 38.7455 434.438 38.4655C434.738 38.1655 435.098 38.0155 435.518 38.0155H445.658C446.098 38.0155 446.458 38.1555 446.738 38.4355C447.038 38.7155 447.188 39.0655 447.188 39.4855C447.188 39.8655 447.038 40.1955 446.738 40.4755C446.458 40.7555 446.098 40.8955 445.658 40.8955H436.898L437.108 40.5955V47.2855L436.928 46.9255H444.308C444.748 46.9255 445.108 47.0655 445.388 47.3455C445.688 47.6255 445.838 47.9755 445.838 48.3955C445.838 48.7755 445.688 49.1055 445.388 49.3855C445.108 49.6655 444.748 49.8055 444.308 49.8055H436.868L437.108 49.5655V57.4855C437.108 57.9255 436.958 58.2955 436.658 58.5955C436.358 58.8755 435.998 59.0155 435.578 59.0155ZM451.798 59.0155C451.358 59.0155 450.998 58.8755 450.718 58.5955C450.438 58.2955 450.298 57.9255 450.298 57.4855V44.7655C450.298 44.3255 450.438 43.9655 450.718 43.6855C450.998 43.3855 451.358 43.2355 451.798 43.2355C452.218 43.2355 452.568 43.3855 452.848 43.6855C453.148 43.9655 453.298 44.3255 453.298 44.7655V48.1255L452.998 46.8355C453.158 46.2755 453.398 45.7555 453.718 45.2755C454.058 44.7955 454.458 44.3755 454.918 44.0155C455.378 43.6555 455.888 43.3755 456.448 43.1755C457.028 42.9755 457.628 42.8755 458.248 42.8755C458.768 42.8755 459.218 43.0155 459.598 43.2955C459.978 43.5755 460.168 43.9255 460.168 44.3455C460.168 44.8855 460.028 45.2855 459.748 45.5455C459.468 45.7855 459.158 45.9055 458.818 45.9055C458.518 45.9055 458.228 45.8455 457.948 45.7255C457.668 45.5855 457.338 45.5155 456.958 45.5155C456.538 45.5155 456.108 45.6255 455.668 45.8455C455.228 46.0655 454.828 46.3955 454.468 46.8355C454.108 47.2555 453.818 47.7555 453.598 48.3355C453.398 48.9155 453.298 49.5655 453.298 50.2855V57.4855C453.298 57.9255 453.148 58.2955 452.848 58.5955C452.568 58.8755 452.218 59.0155 451.798 59.0155ZM477.283 51.1255C477.283 52.7255 476.933 54.1455 476.233 55.3855C475.533 56.6055 474.583 57.5655 473.383 58.2655C472.183 58.9655 470.833 59.3155 469.333 59.3155C467.833 59.3155 466.483 58.9655 465.283 58.2655C464.083 57.5655 463.123 56.6055 462.403 55.3855C461.703 54.1455 461.353 52.7255 461.353 51.1255C461.353 49.5055 461.703 48.0855 462.403 46.8655C463.123 45.6255 464.083 44.6555 465.283 43.9555C466.483 43.2355 467.833 42.8755 469.333 42.8755C470.833 42.8755 472.183 43.2355 473.383 43.9555C474.583 44.6555 475.533 45.6255 476.233 46.8655C476.933 48.0855 477.283 49.5055 477.283 51.1255ZM474.283 51.1255C474.283 50.0255 474.063 49.0755 473.623 48.2755C473.183 47.4555 472.583 46.8155 471.823 46.3555C471.083 45.8755 470.253 45.6355 469.333 45.6355C468.413 45.6355 467.573 45.8755 466.813 46.3555C466.053 46.8155 465.453 47.4555 465.013 48.2755C464.573 49.0755 464.353 50.0255 464.353 51.1255C464.353 52.1855 464.573 53.1255 465.013 53.9455C465.453 54.7655 466.053 55.4055 466.813 55.8655C467.573 56.3255 468.413 56.5555 469.333 56.5555C470.253 56.5555 471.083 56.3255 471.823 55.8655C472.583 55.4055 473.183 54.7655 473.623 53.9455C474.063 53.1255 474.283 52.1855 474.283 51.1255ZM488.809 42.8755C490.229 42.8755 491.329 43.1755 492.109 43.7755C492.889 44.3555 493.429 45.1455 493.729 46.1455C494.049 47.1255 494.209 48.2255 494.209 49.4455V57.4855C494.209 57.9255 494.059 58.2955 493.759 58.5955C493.479 58.8755 493.129 59.0155 492.709 59.0155C492.269 59.0155 491.909 58.8755 491.629 58.5955C491.349 58.2955 491.209 57.9255 491.209 57.4855V49.4755C491.209 48.7555 491.109 48.1155 490.909 47.5555C490.709 46.9755 490.359 46.5155 489.859 46.1755C489.379 45.8155 488.699 45.6355 487.819 45.6355C486.999 45.6355 486.279 45.8155 485.659 46.1755C485.039 46.5155 484.549 46.9755 484.189 47.5555C483.849 48.1155 483.679 48.7555 483.679 49.4755V57.4855C483.679 57.9255 483.529 58.2955 483.229 58.5955C482.949 58.8755 482.599 59.0155 482.179 59.0155C481.739 59.0155 481.379 58.8755 481.099 58.5955C480.819 58.2955 480.679 57.9255 480.679 57.4855V44.7655C480.679 44.3255 480.819 43.9655 481.099 43.6855C481.379 43.3855 481.739 43.2355 482.179 43.2355C482.599 43.2355 482.949 43.3855 483.229 43.6855C483.529 43.9655 483.679 44.3255 483.679 44.7655V46.4455L483.139 46.7455C483.279 46.3055 483.519 45.8655 483.859 45.4255C484.219 44.9655 484.649 44.5455 485.149 44.1655C485.649 43.7655 486.209 43.4555 486.829 43.2355C487.449 42.9955 488.109 42.8755 488.809 42.8755ZM498.164 43.4155H505.214C505.614 43.4155 505.944 43.5555 506.204 43.8355C506.484 44.0955 506.624 44.4255 506.624 44.8255C506.624 45.2055 506.484 45.5255 506.204 45.7855C505.944 46.0455 505.614 46.1755 505.214 46.1755H498.164C497.764 46.1755 497.424 46.0455 497.144 45.7855C496.884 45.5055 496.754 45.1755 496.754 44.7955C496.754 44.3955 496.884 44.0655 497.144 43.8055C497.424 43.5455 497.764 43.4155 498.164 43.4155ZM501.314 39.5155C501.754 39.5155 502.114 39.6655 502.394 39.9655C502.674 40.2455 502.814 40.6055 502.814 41.0455V54.9655C502.814 55.3255 502.874 55.6155 502.994 55.8355C503.114 56.0555 503.274 56.2055 503.474 56.2855C503.694 56.3655 503.914 56.4055 504.134 56.4055C504.354 56.4055 504.544 56.3655 504.704 56.2855C504.884 56.2055 505.094 56.1655 505.334 56.1655C505.574 56.1655 505.794 56.2755 505.994 56.4955C506.194 56.7155 506.294 57.0155 506.294 57.3955C506.294 57.8755 506.034 58.2655 505.514 58.5655C504.994 58.8655 504.434 59.0155 503.834 59.0155C503.494 59.0155 503.094 58.9855 502.634 58.9255C502.174 58.8655 501.724 58.7155 501.284 58.4755C500.864 58.2355 500.514 57.8555 500.234 57.3355C499.954 56.7955 499.814 56.0455 499.814 55.0855V41.0455C499.814 40.6055 499.954 40.2455 500.234 39.9655C500.534 39.6655 500.894 39.5155 501.314 39.5155ZM510.937 51.2455C510.517 51.2455 510.157 51.1055 509.857 50.8255C509.577 50.5255 509.437 50.1655 509.437 49.7455C509.437 49.3055 509.577 48.9555 509.857 48.6955C510.157 48.4155 510.517 48.2755 510.937 48.2755H516.577C516.997 48.2755 517.357 48.4255 517.657 48.7255C517.957 49.0055 518.107 49.3655 518.107 49.8055C518.107 50.2055 517.957 50.5455 517.657 50.8255C517.357 51.1055 516.997 51.2455 516.577 51.2455H510.937ZM529.103 59.3155C527.443 59.3155 526.003 58.9755 524.783 58.2955C523.563 57.5955 522.613 56.6455 521.933 55.4455C521.273 54.2255 520.943 52.8355 520.943 51.2755C520.943 49.5155 521.293 48.0155 521.993 46.7755C522.713 45.5155 523.643 44.5555 524.783 43.8955C525.923 43.2155 527.133 42.8755 528.413 42.8755C529.393 42.8755 530.323 43.0755 531.203 43.4755C532.083 43.8555 532.863 44.3955 533.543 45.0955C534.243 45.7755 534.793 46.5855 535.193 47.5255C535.593 48.4455 535.803 49.4555 535.823 50.5555C535.803 50.9555 535.643 51.2855 535.343 51.5455C535.043 51.8055 534.693 51.9355 534.293 51.9355H522.623L521.903 49.3855H533.183L532.613 49.9255V49.1755C532.573 48.4755 532.343 47.8655 531.923 47.3455C531.503 46.8055 530.983 46.3955 530.363 46.1155C529.743 45.8155 529.093 45.6655 528.413 45.6655C527.813 45.6655 527.233 45.7655 526.673 45.9655C526.133 46.1455 525.643 46.4455 525.203 46.8655C524.783 47.2855 524.443 47.8455 524.183 48.5455C523.943 49.2255 523.823 50.0755 523.823 51.0955C523.823 52.1955 524.053 53.1555 524.513 53.9755C524.973 54.7955 525.593 55.4355 526.373 55.8955C527.153 56.3355 528.013 56.5555 528.953 56.5555C529.693 56.5555 530.303 56.4855 530.783 56.3455C531.263 56.1855 531.663 55.9955 531.983 55.7755C532.303 55.5555 532.583 55.3455 532.823 55.1455C533.123 54.9655 533.423 54.8755 533.723 54.8755C534.083 54.8755 534.383 55.0055 534.623 55.2655C534.863 55.5055 534.983 55.7955 534.983 56.1355C534.983 56.5755 534.763 56.9755 534.323 57.3355C533.783 57.8555 533.033 58.3155 532.073 58.7155C531.133 59.1155 530.143 59.3155 529.103 59.3155ZM547.344 42.8755C548.764 42.8755 549.864 43.1755 550.644 43.7755C551.424 44.3555 551.964 45.1455 552.264 46.1455C552.584 47.1255 552.744 48.2255 552.744 49.4455V57.4855C552.744 57.9255 552.594 58.2955 552.294 58.5955C552.014 58.8755 551.664 59.0155 551.244 59.0155C550.804 59.0155 550.444 58.8755 550.164 58.5955C549.884 58.2955 549.744 57.9255 549.744 57.4855V49.4755C549.744 48.7555 549.644 48.1155 549.444 47.5555C549.244 46.9755 548.894 46.5155 548.394 46.1755C547.914 45.8155 547.234 45.6355 546.354 45.6355C545.534 45.6355 544.814 45.8155 544.194 46.1755C543.574 46.5155 543.084 46.9755 542.724 47.5555C542.384 48.1155 542.214 48.7555 542.214 49.4755V57.4855C542.214 57.9255 542.064 58.2955 541.764 58.5955C541.484 58.8755 541.134 59.0155 540.714 59.0155C540.274 59.0155 539.914 58.8755 539.634 58.5955C539.354 58.2955 539.214 57.9255 539.214 57.4855V44.7655C539.214 44.3255 539.354 43.9655 539.634 43.6855C539.914 43.3855 540.274 43.2355 540.714 43.2355C541.134 43.2355 541.484 43.3855 541.764 43.6855C542.064 43.9655 542.214 44.3255 542.214 44.7655V46.4455L541.674 46.7455C541.814 46.3055 542.054 45.8655 542.394 45.4255C542.754 44.9655 543.184 44.5455 543.684 44.1655C544.184 43.7655 544.744 43.4555 545.364 43.2355C545.984 42.9955 546.644 42.8755 547.344 42.8755ZM569.84 36.8155C570.28 36.8155 570.64 36.9555 570.92 37.2355C571.2 37.5155 571.34 37.8855 571.34 38.3455V57.4855C571.34 57.9255 571.2 58.2955 570.92 58.5955C570.64 58.8755 570.28 59.0155 569.84 59.0155C569.42 59.0155 569.06 58.8755 568.76 58.5955C568.48 58.2955 568.34 57.9255 568.34 57.4855V55.3255L568.97 55.3555C568.97 55.7155 568.82 56.1255 568.52 56.5855C568.24 57.0255 567.85 57.4555 567.35 57.8755C566.85 58.2955 566.26 58.6455 565.58 58.9255C564.9 59.1855 564.17 59.3155 563.39 59.3155C562.01 59.3155 560.77 58.9655 559.67 58.2655C558.57 57.5455 557.7 56.5755 557.06 55.3555C556.42 54.1155 556.1 52.6955 556.1 51.0955C556.1 49.4955 556.42 48.0855 557.06 46.8655C557.7 45.6255 558.56 44.6555 559.64 43.9555C560.74 43.2355 561.96 42.8755 563.3 42.8755C564.14 42.8755 564.92 43.0155 565.64 43.2955C566.38 43.5755 567.02 43.9355 567.56 44.3755C568.1 44.8155 568.52 45.2855 568.82 45.7855C569.12 46.2655 569.27 46.7255 569.27 47.1655L568.34 47.2555V38.3455C568.34 37.9055 568.48 37.5455 568.76 37.2655C569.06 36.9655 569.42 36.8155 569.84 36.8155ZM563.72 56.5555C564.68 56.5555 565.51 56.3155 566.21 55.8355C566.93 55.3555 567.49 54.7055 567.89 53.8855C568.29 53.0655 568.49 52.1355 568.49 51.0955C568.49 50.0555 568.29 49.1255 567.89 48.3055C567.49 47.4855 566.93 46.8355 566.21 46.3555C565.49 45.8755 564.66 45.6355 563.72 45.6355C562.8 45.6355 561.98 45.8755 561.26 46.3555C560.56 46.8355 560 47.4855 559.58 48.3055C559.18 49.1255 558.98 50.0555 558.98 51.0955C558.98 52.1355 559.18 53.0655 559.58 53.8855C560 54.7055 560.56 55.3555 561.26 55.8355C561.98 56.3155 562.8 56.5555 563.72 56.5555Z" fill="white"/>
<path d="M108.069 38.0155C109.909 38.0155 111.299 38.4655 112.239 39.3655C113.199 40.2655 113.679 41.5755 113.679 43.2955C113.679 44.1955 113.459 45.0155 113.019 45.7555C112.599 46.4755 111.969 47.0455 111.129 47.4655C110.309 47.8855 109.279 48.1055 108.039 48.1255L108.099 47.0155C108.759 47.0155 109.469 47.1055 110.229 47.2855C111.009 47.4655 111.739 47.7755 112.419 48.2155C113.099 48.6555 113.659 49.2555 114.099 50.0155C114.539 50.7555 114.759 51.6855 114.759 52.8055C114.759 54.0255 114.559 55.0455 114.159 55.8655C113.759 56.6655 113.229 57.2955 112.569 57.7555C111.909 58.2155 111.179 58.5455 110.379 58.7455C109.599 58.9255 108.829 59.0155 108.069 59.0155H100.389C99.9687 59.0155 99.6087 58.8755 99.3087 58.5955C99.0087 58.2955 98.8587 57.9255 98.8587 57.4855V39.5455C98.8587 39.1055 99.0087 38.7455 99.3087 38.4655C99.6087 38.1655 99.9687 38.0155 100.389 38.0155H108.069ZM107.649 40.9555H101.739L102.099 40.4755V46.9255L101.769 46.5955H107.709C108.429 46.5755 109.059 46.3355 109.599 45.8755C110.159 45.3955 110.439 44.6955 110.439 43.7755C110.439 42.8355 110.189 42.1355 109.689 41.6755C109.189 41.1955 108.509 40.9555 107.649 40.9555ZM107.859 49.5355H101.889L102.099 49.3255V56.4055L101.859 56.1355H108.039C109.079 56.1355 109.919 55.8655 110.559 55.3255C111.199 54.7655 111.519 53.9255 111.519 52.8055C111.519 51.8655 111.329 51.1655 110.949 50.7055C110.569 50.2455 110.099 49.9355 109.539 49.7755C108.979 49.6155 108.419 49.5355 107.859 49.5355ZM131.088 42.9955C131.528 42.9955 131.888 43.1455 132.168 43.4455C132.448 43.7255 132.588 44.0855 132.588 44.5255V57.4855C132.588 57.9255 132.448 58.2955 132.168 58.5955C131.888 58.8755 131.528 59.0155 131.088 59.0155C130.668 59.0155 130.308 58.8755 130.008 58.5955C129.728 58.2955 129.588 57.9255 129.588 57.4855V55.3255L130.218 55.4155C130.218 55.7755 130.068 56.1755 129.768 56.6155C129.488 57.0555 129.098 57.4855 128.598 57.9055C128.098 58.3055 127.508 58.6455 126.828 58.9255C126.148 59.1855 125.418 59.3155 124.638 59.3155C123.258 59.3155 122.018 58.9655 120.918 58.2655C119.818 57.5455 118.948 56.5655 118.308 55.3255C117.668 54.0855 117.348 52.6755 117.348 51.0955C117.348 49.4755 117.668 48.0555 118.308 46.8355C118.948 45.5955 119.808 44.6255 120.888 43.9255C121.988 43.2255 123.208 42.8755 124.548 42.8755C125.408 42.8755 126.198 43.0155 126.918 43.2955C127.658 43.5755 128.298 43.9355 128.838 44.3755C129.378 44.8155 129.788 45.2855 130.068 45.7855C130.368 46.2655 130.518 46.7255 130.518 47.1655L129.588 47.2555V44.5255C129.588 44.1055 129.728 43.7455 130.008 43.4455C130.308 43.1455 130.668 42.9955 131.088 42.9955ZM124.968 56.5555C125.908 56.5555 126.738 56.3155 127.458 55.8355C128.178 55.3555 128.738 54.7055 129.138 53.8855C129.538 53.0455 129.738 52.1155 129.738 51.0955C129.738 50.0555 129.538 49.1255 129.138 48.3055C128.738 47.4855 128.178 46.8355 127.458 46.3555C126.738 45.8755 125.908 45.6355 124.968 45.6355C124.048 45.6355 123.228 45.8755 122.508 46.3555C121.808 46.8355 121.248 47.4855 120.828 48.3055C120.428 49.1255 120.228 50.0555 120.228 51.0955C120.228 52.1155 120.428 53.0455 120.828 53.8855C121.248 54.7055 121.808 55.3555 122.508 55.8355C123.228 56.3155 124.048 56.5555 124.968 56.5555ZM143.78 42.8755C144.86 42.8755 145.82 42.9955 146.66 43.2355C147.5 43.4555 148.15 43.7755 148.61 44.1955C149.09 44.5955 149.33 45.0655 149.33 45.6055C149.33 45.9455 149.23 46.2655 149.03 46.5655C148.83 46.8455 148.53 46.9855 148.13 46.9855C147.85 46.9855 147.61 46.9355 147.41 46.8355C147.23 46.7355 147.06 46.6155 146.9 46.4755C146.74 46.3355 146.54 46.1955 146.3 46.0555C146.08 45.9355 145.75 45.8355 145.31 45.7555C144.89 45.6755 144.51 45.6355 144.17 45.6355C143.11 45.6355 142.19 45.8755 141.41 46.3555C140.65 46.8355 140.05 47.4855 139.61 48.3055C139.19 49.1255 138.98 50.0555 138.98 51.0955C138.98 52.1355 139.19 53.0655 139.61 53.8855C140.05 54.7055 140.64 55.3555 141.38 55.8355C142.14 56.3155 143.02 56.5555 144.02 56.5555C144.62 56.5555 145.11 56.5155 145.49 56.4355C145.87 56.3355 146.2 56.2155 146.48 56.0755C146.78 55.8955 147.03 55.7155 147.23 55.5355C147.45 55.3355 147.75 55.2355 148.13 55.2355C148.57 55.2355 148.9 55.3755 149.12 55.6555C149.36 55.9155 149.48 56.2455 149.48 56.6455C149.48 57.0855 149.21 57.5155 148.67 57.9355C148.15 58.3355 147.45 58.6655 146.57 58.9255C145.69 59.1855 144.72 59.3155 143.66 59.3155C142.1 59.3155 140.74 58.9555 139.58 58.2355C138.44 57.5155 137.55 56.5355 136.91 55.2955C136.29 54.0555 135.98 52.6555 135.98 51.0955C135.98 49.5155 136.31 48.1155 136.97 46.8955C137.63 45.6555 138.55 44.6755 139.73 43.9555C140.91 43.2355 142.26 42.8755 143.78 42.8755ZM154.087 59.0155C153.667 59.0155 153.307 58.8755 153.007 58.5955C152.727 58.2955 152.587 57.9255 152.587 57.4855V38.3455C152.587 37.9055 152.727 37.5455 153.007 37.2655C153.307 36.9655 153.667 36.8155 154.087 36.8155C154.527 36.8155 154.887 36.9655 155.167 37.2655C155.447 37.5455 155.587 37.9055 155.587 38.3455V57.4855C155.587 57.9255 155.447 58.2955 155.167 58.5955C154.887 58.8755 154.527 59.0155 154.087 59.0155ZM163.867 43.1755C164.247 43.1755 164.577 43.3355 164.857 43.6555C165.137 43.9755 165.277 44.2955 165.277 44.6155C165.277 45.0155 165.087 45.3855 164.707 45.7255L155.317 54.1255L155.197 50.6755L162.757 43.6555C163.077 43.3355 163.447 43.1755 163.867 43.1755ZM164.227 58.9855C163.807 58.9855 163.447 58.8155 163.147 58.4755L157.147 52.1455L159.427 50.0455L165.277 56.3755C165.597 56.7155 165.757 57.0955 165.757 57.5155C165.757 57.9555 165.577 58.3155 165.217 58.5955C164.877 58.8555 164.547 58.9855 164.227 58.9855ZM170.066 51.2455C169.646 51.2455 169.286 51.1055 168.986 50.8255C168.706 50.5255 168.566 50.1655 168.566 49.7455C168.566 49.3055 168.706 48.9555 168.986 48.6955C169.286 48.4155 169.646 48.2755 170.066 48.2755H175.706C176.126 48.2755 176.486 48.4255 176.786 48.7255C177.086 49.0055 177.236 49.3655 177.236 49.8055C177.236 50.2055 177.086 50.5455 176.786 50.8255C176.486 51.1055 176.126 51.2455 175.706 51.2455H170.066ZM188.232 59.3155C186.572 59.3155 185.132 58.9755 183.912 58.2955C182.692 57.5955 181.742 56.6455 181.062 55.4455C180.402 54.2255 180.072 52.8355 180.072 51.2755C180.072 49.5155 180.422 48.0155 181.122 46.7755C181.842 45.5155 182.772 44.5555 183.912 43.8955C185.052 43.2155 186.262 42.8755 187.542 42.8755C188.522 42.8755 189.452 43.0755 190.332 43.4755C191.212 43.8555 191.992 44.3955 192.672 45.0955C193.372 45.7755 193.922 46.5855 194.322 47.5255C194.722 48.4455 194.932 49.4555 194.952 50.5555C194.932 50.9555 194.772 51.2855 194.472 51.5455C194.172 51.8055 193.822 51.9355 193.422 51.9355H181.752L181.032 49.3855H192.312L191.742 49.9255V49.1755C191.702 48.4755 191.472 47.8655 191.052 47.3455C190.632 46.8055 190.112 46.3955 189.492 46.1155C188.872 45.8155 188.222 45.6655 187.542 45.6655C186.942 45.6655 186.362 45.7655 185.802 45.9655C185.262 46.1455 184.772 46.4455 184.332 46.8655C183.912 47.2855 183.572 47.8455 183.312 48.5455C183.072 49.2255 182.952 50.0755 182.952 51.0955C182.952 52.1955 183.182 53.1555 183.642 53.9755C184.102 54.7955 184.722 55.4355 185.502 55.8955C186.282 56.3355 187.142 56.5555 188.082 56.5555C188.822 56.5555 189.432 56.4855 189.912 56.3455C190.392 56.1855 190.792 55.9955 191.112 55.7755C191.432 55.5555 191.712 55.3455 191.952 55.1455C192.252 54.9655 192.552 54.8755 192.852 54.8755C193.212 54.8755 193.512 55.0055 193.752 55.2655C193.992 55.5055 194.112 55.7955 194.112 56.1355C194.112 56.5755 193.892 56.9755 193.452 57.3355C192.912 57.8555 192.162 58.3155 191.202 58.7155C190.262 59.1155 189.272 59.3155 188.232 59.3155ZM206.473 42.8755C207.893 42.8755 208.993 43.1755 209.773 43.7755C210.553 44.3555 211.093 45.1455 211.393 46.1455C211.713 47.1255 211.873 48.2255 211.873 49.4455V57.4855C211.873 57.9255 211.723 58.2955 211.423 58.5955C211.143 58.8755 210.793 59.0155 210.373 59.0155C209.933 59.0155 209.573 58.8755 209.293 58.5955C209.013 58.2955 208.873 57.9255 208.873 57.4855V49.4755C208.873 48.7555 208.773 48.1155 208.573 47.5555C208.373 46.9755 208.023 46.5155 207.523 46.1755C207.043 45.8155 206.363 45.6355 205.483 45.6355C204.663 45.6355 203.943 45.8155 203.323 46.1755C202.703 46.5155 202.213 46.9755 201.853 47.5555C201.513 48.1155 201.343 48.7555 201.343 49.4755V57.4855C201.343 57.9255 201.193 58.2955 200.893 58.5955C200.613 58.8755 200.263 59.0155 199.843 59.0155C199.403 59.0155 199.043 58.8755 198.763 58.5955C198.483 58.2955 198.343 57.9255 198.343 57.4855V44.7655C198.343 44.3255 198.483 43.9655 198.763 43.6855C199.043 43.3855 199.403 43.2355 199.843 43.2355C200.263 43.2355 200.613 43.3855 200.893 43.6855C201.193 43.9655 201.343 44.3255 201.343 44.7655V46.4455L200.803 46.7455C200.943 46.3055 201.183 45.8655 201.523 45.4255C201.883 44.9655 202.313 44.5455 202.813 44.1655C203.313 43.7655 203.873 43.4555 204.493 43.2355C205.113 42.9955 205.773 42.8755 206.473 42.8755ZM228.968 36.8155C229.408 36.8155 229.768 36.9555 230.048 37.2355C230.328 37.5155 230.468 37.8855 230.468 38.3455V57.4855C230.468 57.9255 230.328 58.2955 230.048 58.5955C229.768 58.8755 229.408 59.0155 228.968 59.0155C228.548 59.0155 228.188 58.8755 227.888 58.5955C227.608 58.2955 227.468 57.9255 227.468 57.4855V55.3255L228.098 55.3555C228.098 55.7155 227.948 56.1255 227.648 56.5855C227.368 57.0255 226.978 57.4555 226.478 57.8755C225.978 58.2955 225.388 58.6455 224.708 58.9255C224.028 59.1855 223.298 59.3155 222.518 59.3155C221.138 59.3155 219.898 58.9655 218.798 58.2655C217.698 57.5455 216.828 56.5755 216.188 55.3555C215.548 54.1155 215.228 52.6955 215.228 51.0955C215.228 49.4955 215.548 48.0855 216.188 46.8655C216.828 45.6255 217.688 44.6555 218.768 43.9555C219.868 43.2355 221.088 42.8755 222.428 42.8755C223.268 42.8755 224.048 43.0155 224.768 43.2955C225.508 43.5755 226.148 43.9355 226.688 44.3755C227.228 44.8155 227.648 45.2855 227.948 45.7855C228.248 46.2655 228.398 46.7255 228.398 47.1655L227.468 47.2555V38.3455C227.468 37.9055 227.608 37.5455 227.888 37.2655C228.188 36.9655 228.548 36.8155 228.968 36.8155ZM222.848 56.5555C223.808 56.5555 224.638 56.3155 225.338 55.8355C226.058 55.3555 226.618 54.7055 227.018 53.8855C227.418 53.0655 227.618 52.1355 227.618 51.0955C227.618 50.0555 227.418 49.1255 227.018 48.3055C226.618 47.4855 226.058 46.8355 225.338 46.3555C224.618 45.8755 223.788 45.6355 222.848 45.6355C221.928 45.6355 221.108 45.8755 220.388 46.3555C219.688 46.8355 219.128 47.4855 218.708 48.3055C218.308 49.1255 218.108 50.0555 218.108 51.0955C218.108 52.1355 218.308 53.0655 218.708 53.8855C219.128 54.7055 219.688 55.3555 220.388 55.8355C221.108 56.3155 221.928 56.5555 222.848 56.5555Z" fill="white"/>
<path d="M1088.34 59.0155C1087.86 59.0155 1087.44 58.8755 1087.08 58.5955C1086.72 58.2955 1086.54 57.9255 1086.54 57.4855V39.5455C1086.54 39.1055 1086.69 38.7455 1086.99 38.4655C1087.29 38.1655 1087.65 38.0155 1088.07 38.0155H1096.53C1097.61 38.0155 1098.6 38.2855 1099.5 38.8255C1100.4 39.3455 1101.12 40.0755 1101.66 41.0155C1102.22 41.9355 1102.5 42.9955 1102.5 44.1955C1102.5 44.9955 1102.34 45.7655 1102.02 46.5055C1101.7 47.2255 1101.27 47.8655 1100.73 48.4255C1100.19 48.9855 1099.58 49.4055 1098.9 49.6855L1098.57 49.1155C1099.19 49.3355 1099.73 49.6555 1100.19 50.0755C1100.65 50.4755 1101.01 50.9555 1101.27 51.5155C1101.55 52.0555 1101.7 52.6755 1101.72 53.3755C1101.78 53.9955 1101.83 54.5155 1101.87 54.9355C1101.93 55.3355 1102.01 55.6655 1102.11 55.9255C1102.21 56.1855 1102.39 56.3855 1102.65 56.5255C1103.01 56.7255 1103.23 57.0255 1103.31 57.4255C1103.41 57.8255 1103.33 58.1855 1103.07 58.5055C1102.89 58.7455 1102.66 58.9055 1102.38 58.9855C1102.12 59.0455 1101.85 59.0555 1101.57 59.0155C1101.29 58.9555 1101.05 58.8755 1100.85 58.7755C1100.53 58.5755 1100.2 58.2955 1099.86 57.9355C1099.54 57.5555 1099.28 57.0355 1099.08 56.3755C1098.88 55.7155 1098.78 54.8455 1098.78 53.7655C1098.78 53.2655 1098.7 52.8355 1098.54 52.4755C1098.38 52.1155 1098.16 51.8255 1097.88 51.6055C1097.6 51.3655 1097.27 51.1955 1096.89 51.0955C1096.51 50.9755 1096.09 50.9155 1095.63 50.9155H1089.27L1089.69 50.3155V57.4855C1089.69 57.9255 1089.57 58.2955 1089.33 58.5955C1089.09 58.8755 1088.76 59.0155 1088.34 59.0155ZM1089.3 48.3055H1096.47C1096.93 48.2855 1097.37 48.1055 1097.79 47.7655C1098.23 47.4055 1098.58 46.9255 1098.84 46.3255C1099.12 45.7255 1099.26 45.0455 1099.26 44.2855C1099.26 43.3255 1098.97 42.5255 1098.39 41.8855C1097.83 41.2255 1097.16 40.8955 1096.38 40.8955H1089.36L1089.69 40.1155V48.9355L1089.3 48.3055ZM1108.49 38.0155H1118.87C1119.29 38.0155 1119.64 38.1555 1119.92 38.4355C1120.22 38.7155 1120.37 39.0655 1120.37 39.4855C1120.37 39.9055 1120.22 40.2455 1119.92 40.5055C1119.64 40.7655 1119.29 40.8955 1118.87 40.8955H1109.81L1110.11 40.3855V47.1055L1109.84 46.8055H1117.52C1117.94 46.8055 1118.29 46.9455 1118.57 47.2255C1118.87 47.5055 1119.02 47.8655 1119.02 48.3055C1119.02 48.7255 1118.87 49.0655 1118.57 49.3255C1118.29 49.5855 1117.94 49.7155 1117.52 49.7155H1109.9L1110.11 49.4455V56.3755L1109.9 56.1355H1118.87C1119.29 56.1355 1119.64 56.2855 1119.92 56.5855C1120.22 56.8655 1120.37 57.1955 1120.37 57.5755C1120.37 57.9955 1120.22 58.3455 1119.92 58.6255C1119.64 58.8855 1119.29 59.0155 1118.87 59.0155H1108.49C1108.07 59.0155 1107.71 58.8755 1107.41 58.5955C1107.11 58.2955 1106.96 57.9255 1106.96 57.4855V39.5455C1106.96 39.1055 1107.11 38.7455 1107.41 38.4655C1107.71 38.1655 1108.07 38.0155 1108.49 38.0155ZM1130.54 59.3155C1129.1 59.3155 1127.82 59.1155 1126.7 58.7155C1125.58 58.3155 1124.51 57.6555 1123.49 56.7355C1123.27 56.5755 1123.1 56.3855 1122.98 56.1655C1122.88 55.9255 1122.83 55.6855 1122.83 55.4455C1122.83 55.0655 1122.97 54.7255 1123.25 54.4255C1123.53 54.1255 1123.88 53.9755 1124.3 53.9755C1124.62 53.9755 1124.92 54.0855 1125.2 54.3055C1125.96 55.0055 1126.75 55.5355 1127.57 55.8955C1128.41 56.2555 1129.39 56.4355 1130.51 56.4355C1131.31 56.4355 1132.04 56.3055 1132.7 56.0455C1133.38 55.7855 1133.92 55.4355 1134.32 54.9955C1134.72 54.5555 1134.92 54.0455 1134.92 53.4655C1134.92 52.7455 1134.71 52.1555 1134.29 51.6955C1133.89 51.2155 1133.3 50.8255 1132.52 50.5255C1131.76 50.2055 1130.84 49.9355 1129.76 49.7155C1128.76 49.5355 1127.86 49.2855 1127.06 48.9655C1126.28 48.6455 1125.61 48.2455 1125.05 47.7655C1124.49 47.2655 1124.06 46.6755 1123.76 45.9955C1123.46 45.3155 1123.31 44.5255 1123.31 43.6255C1123.31 42.4055 1123.63 41.3555 1124.27 40.4755C1124.91 39.5955 1125.78 38.9155 1126.88 38.4355C1127.98 37.9555 1129.22 37.7155 1130.6 37.7155C1131.86 37.7155 1133.04 37.9155 1134.14 38.3155C1135.24 38.6955 1136.13 39.2155 1136.81 39.8755C1137.29 40.2955 1137.53 40.7455 1137.53 41.2255C1137.53 41.5855 1137.38 41.9255 1137.08 42.2455C1136.8 42.5455 1136.47 42.6955 1136.09 42.6955C1135.81 42.6955 1135.57 42.6155 1135.37 42.4555C1135.05 42.1155 1134.62 41.8155 1134.08 41.5555C1133.54 41.2755 1132.96 41.0455 1132.34 40.8655C1131.74 40.6855 1131.16 40.5955 1130.6 40.5955C1129.7 40.5955 1128.93 40.7255 1128.29 40.9855C1127.65 41.2255 1127.16 41.5655 1126.82 42.0055C1126.48 42.4255 1126.31 42.9255 1126.31 43.5055C1126.31 44.1855 1126.5 44.7455 1126.88 45.1855C1127.28 45.6255 1127.83 45.9855 1128.53 46.2655C1129.23 46.5255 1130.03 46.7655 1130.93 46.9855C1132.03 47.2255 1133.01 47.4955 1133.87 47.7955C1134.75 48.0955 1135.49 48.4855 1136.09 48.9655C1136.69 49.4255 1137.15 50.0055 1137.47 50.7055C1137.79 51.4055 1137.95 52.2755 1137.95 53.3155C1137.95 54.5155 1137.61 55.5655 1136.93 56.4655C1136.25 57.3655 1135.35 58.0655 1134.23 58.5655C1133.13 59.0655 1131.9 59.3155 1130.54 59.3155ZM1148.48 59.0155C1148 59.0155 1147.61 58.8755 1147.31 58.5955C1147.03 58.2955 1146.89 57.9255 1146.89 57.4855V39.5155H1150.1V57.4855C1150.1 57.9255 1149.94 58.2955 1149.62 58.5955C1149.32 58.8755 1148.94 59.0155 1148.48 59.0155ZM1141.67 40.8955C1141.25 40.8955 1140.89 40.7655 1140.59 40.5055C1140.29 40.2255 1140.14 39.8655 1140.14 39.4255C1140.14 39.0055 1140.29 38.6655 1140.59 38.4055C1140.89 38.1455 1141.25 38.0155 1141.67 38.0155H1155.32C1155.74 38.0155 1156.09 38.1555 1156.37 38.4355C1156.67 38.6955 1156.82 39.0355 1156.82 39.4555C1156.82 39.8955 1156.67 40.2455 1156.37 40.5055C1156.09 40.7655 1155.74 40.8955 1155.32 40.8955H1141.67ZM1167.24 36.8455C1167.62 36.8455 1168.01 36.8955 1168.41 36.9955C1168.81 37.0955 1169.14 37.2655 1169.4 37.5055C1169.68 37.7255 1169.82 38.0355 1169.82 38.4355C1169.82 38.8355 1169.7 39.1655 1169.46 39.4255C1169.22 39.6655 1168.94 39.7855 1168.62 39.7855C1168.42 39.7855 1168.15 39.7455 1167.81 39.6655C1167.47 39.5655 1167.13 39.5155 1166.79 39.5155C1166.33 39.5155 1165.96 39.6255 1165.68 39.8455C1165.4 40.0455 1165.2 40.3055 1165.08 40.6255C1164.96 40.9255 1164.9 41.2255 1164.9 41.5255V57.4855C1164.9 57.9255 1164.75 58.2955 1164.45 58.5955C1164.17 58.8755 1163.82 59.0155 1163.4 59.0155C1162.96 59.0155 1162.6 58.8755 1162.32 58.5955C1162.04 58.2955 1161.9 57.9255 1161.9 57.4855V41.5555C1161.9 40.1755 1162.35 39.0455 1163.25 38.1655C1164.17 37.2855 1165.5 36.8455 1167.24 36.8455ZM1167.84 43.5055C1168.24 43.5055 1168.57 43.6355 1168.83 43.8955C1169.09 44.1555 1169.22 44.4855 1169.22 44.8855C1169.22 45.2855 1169.09 45.6155 1168.83 45.8755C1168.57 46.1355 1168.24 46.2655 1167.84 46.2655H1160.07C1159.69 46.2655 1159.36 46.1355 1159.08 45.8755C1158.82 45.6155 1158.69 45.2855 1158.69 44.8855C1158.69 44.4855 1158.82 44.1555 1159.08 43.8955C1159.36 43.6355 1159.69 43.5055 1160.07 43.5055H1167.84ZM1183.98 43.2355C1184.4 43.2355 1184.75 43.3855 1185.03 43.6855C1185.33 43.9655 1185.48 44.3255 1185.48 44.7655V52.6555C1185.48 54.7355 1184.9 56.3655 1183.74 57.5455C1182.58 58.7055 1180.94 59.2855 1178.82 59.2855C1176.72 59.2855 1175.09 58.7055 1173.93 57.5455C1172.79 56.3655 1172.22 54.7355 1172.22 52.6555V44.7655C1172.22 44.3255 1172.36 43.9655 1172.64 43.6855C1172.92 43.3855 1173.28 43.2355 1173.72 43.2355C1174.14 43.2355 1174.49 43.3855 1174.77 43.6855C1175.07 43.9655 1175.22 44.3255 1175.22 44.7655V52.6555C1175.22 53.9555 1175.52 54.9255 1176.12 55.5655C1176.74 56.2055 1177.64 56.5255 1178.82 56.5255C1180.02 56.5255 1180.93 56.2055 1181.55 55.5655C1182.17 54.9255 1182.48 53.9555 1182.48 52.6555V44.7655C1182.48 44.3255 1182.62 43.9655 1182.9 43.6855C1183.18 43.3855 1183.54 43.2355 1183.98 43.2355ZM1192.89 57.4855C1192.89 57.9255 1192.74 58.2955 1192.44 58.5955C1192.16 58.8755 1191.81 59.0155 1191.39 59.0155C1190.97 59.0155 1190.61 58.8755 1190.31 58.5955C1190.03 58.2955 1189.89 57.9255 1189.89 57.4855V38.3455C1189.89 37.9055 1190.04 37.5455 1190.34 37.2655C1190.64 36.9655 1191 36.8155 1191.42 36.8155C1191.86 36.8155 1192.21 36.9655 1192.47 37.2655C1192.75 37.5455 1192.89 37.9055 1192.89 38.3455V57.4855ZM1218.64 42.9955C1219.08 42.9955 1219.44 43.1455 1219.72 43.4455C1220 43.7255 1220.14 44.0855 1220.14 44.5255V57.4855C1220.14 57.9255 1220 58.2955 1219.72 58.5955C1219.44 58.8755 1219.08 59.0155 1218.64 59.0155C1218.22 59.0155 1217.86 58.8755 1217.56 58.5955C1217.28 58.2955 1217.14 57.9255 1217.14 57.4855V55.3255L1217.77 55.4155C1217.77 55.7755 1217.62 56.1755 1217.32 56.6155C1217.04 57.0555 1216.65 57.4855 1216.15 57.9055C1215.65 58.3055 1215.06 58.6455 1214.38 58.9255C1213.7 59.1855 1212.97 59.3155 1212.19 59.3155C1210.81 59.3155 1209.57 58.9655 1208.47 58.2655C1207.37 57.5455 1206.5 56.5655 1205.86 55.3255C1205.22 54.0855 1204.9 52.6755 1204.9 51.0955C1204.9 49.4755 1205.22 48.0555 1205.86 46.8355C1206.5 45.5955 1207.36 44.6255 1208.44 43.9255C1209.54 43.2255 1210.76 42.8755 1212.1 42.8755C1212.96 42.8755 1213.75 43.0155 1214.47 43.2955C1215.21 43.5755 1215.85 43.9355 1216.39 44.3755C1216.93 44.8155 1217.34 45.2855 1217.62 45.7855C1217.92 46.2655 1218.07 46.7255 1218.07 47.1655L1217.14 47.2555V44.5255C1217.14 44.1055 1217.28 43.7455 1217.56 43.4455C1217.86 43.1455 1218.22 42.9955 1218.64 42.9955ZM1212.52 56.5555C1213.46 56.5555 1214.29 56.3155 1215.01 55.8355C1215.73 55.3555 1216.29 54.7055 1216.69 53.8855C1217.09 53.0455 1217.29 52.1155 1217.29 51.0955C1217.29 50.0555 1217.09 49.1255 1216.69 48.3055C1216.29 47.4855 1215.73 46.8355 1215.01 46.3555C1214.29 45.8755 1213.46 45.6355 1212.52 45.6355C1211.6 45.6355 1210.78 45.8755 1210.06 46.3555C1209.36 46.8355 1208.8 47.4855 1208.38 48.3055C1207.98 49.1255 1207.78 50.0555 1207.78 51.0955C1207.78 52.1155 1207.98 53.0455 1208.38 53.8855C1208.8 54.7055 1209.36 55.3555 1210.06 55.8355C1210.78 56.3155 1211.6 56.5555 1212.52 56.5555ZM1232.29 42.9655C1233.69 42.9655 1234.93 43.3155 1236.01 44.0155C1237.11 44.7155 1237.98 45.6755 1238.62 46.8955C1239.26 48.0955 1239.58 49.4955 1239.58 51.0955C1239.58 52.6955 1239.26 54.1155 1238.62 55.3555C1237.98 56.5755 1237.12 57.5355 1236.04 58.2355C1234.96 58.9355 1233.74 59.2855 1232.38 59.2855C1231.62 59.2855 1230.9 59.1655 1230.22 58.9255C1229.54 58.6855 1228.94 58.3755 1228.42 57.9955C1227.9 57.5955 1227.47 57.1755 1227.13 56.7355C1226.81 56.2955 1226.61 55.8855 1226.53 55.5055L1227.34 55.1155V63.4855C1227.34 63.9255 1227.19 64.2855 1226.89 64.5655C1226.61 64.8655 1226.26 65.0155 1225.84 65.0155C1225.4 65.0155 1225.04 64.8655 1224.76 64.5655C1224.48 64.2855 1224.34 63.9255 1224.34 63.4855V44.7055C1224.34 44.2855 1224.48 43.9255 1224.76 43.6255C1225.04 43.3255 1225.4 43.1755 1225.84 43.1755C1226.26 43.1755 1226.61 43.3255 1226.89 43.6255C1227.19 43.9255 1227.34 44.2855 1227.34 44.7055V46.7755L1226.86 46.5055C1226.92 46.1255 1227.11 45.7355 1227.43 45.3355C1227.75 44.9155 1228.15 44.5255 1228.63 44.1655C1229.13 43.8055 1229.69 43.5155 1230.31 43.2955C1230.95 43.0755 1231.61 42.9655 1232.29 42.9655ZM1231.96 45.7255C1231 45.7255 1230.16 45.9655 1229.44 46.4455C1228.74 46.9055 1228.19 47.5355 1227.79 48.3355C1227.39 49.1355 1227.19 50.0555 1227.19 51.0955C1227.19 52.1155 1227.39 53.0455 1227.79 53.8855C1228.19 54.7055 1228.74 55.3555 1229.44 55.8355C1230.16 56.2955 1231 56.5255 1231.96 56.5255C1232.9 56.5255 1233.72 56.2955 1234.42 55.8355C1235.12 55.3555 1235.67 54.7055 1236.07 53.8855C1236.49 53.0455 1236.7 52.1155 1236.7 51.0955C1236.7 50.0755 1236.49 49.1655 1236.07 48.3655C1235.67 47.5455 1235.12 46.9055 1234.42 46.4455C1233.72 45.9655 1232.9 45.7255 1231.96 45.7255ZM1250.92 42.9655C1252.32 42.9655 1253.56 43.3155 1254.64 44.0155C1255.74 44.7155 1256.61 45.6755 1257.25 46.8955C1257.89 48.0955 1258.21 49.4955 1258.21 51.0955C1258.21 52.6955 1257.89 54.1155 1257.25 55.3555C1256.61 56.5755 1255.75 57.5355 1254.67 58.2355C1253.59 58.9355 1252.37 59.2855 1251.01 59.2855C1250.25 59.2855 1249.53 59.1655 1248.85 58.9255C1248.17 58.6855 1247.57 58.3755 1247.05 57.9955C1246.53 57.5955 1246.1 57.1755 1245.76 56.7355C1245.44 56.2955 1245.24 55.8855 1245.16 55.5055L1245.97 55.1155V63.4855C1245.97 63.9255 1245.82 64.2855 1245.52 64.5655C1245.24 64.8655 1244.89 65.0155 1244.47 65.0155C1244.03 65.0155 1243.67 64.8655 1243.39 64.5655C1243.11 64.2855 1242.97 63.9255 1242.97 63.4855V44.7055C1242.97 44.2855 1243.11 43.9255 1243.39 43.6255C1243.67 43.3255 1244.03 43.1755 1244.47 43.1755C1244.89 43.1755 1245.24 43.3255 1245.52 43.6255C1245.82 43.9255 1245.97 44.2855 1245.97 44.7055V46.7755L1245.49 46.5055C1245.55 46.1255 1245.74 45.7355 1246.06 45.3355C1246.38 44.9155 1246.78 44.5255 1247.26 44.1655C1247.76 43.8055 1248.32 43.5155 1248.94 43.2955C1249.58 43.0755 1250.24 42.9655 1250.92 42.9655ZM1250.59 45.7255C1249.63 45.7255 1248.79 45.9655 1248.07 46.4455C1247.37 46.9055 1246.82 47.5355 1246.42 48.3355C1246.02 49.1355 1245.82 50.0555 1245.82 51.0955C1245.82 52.1155 1246.02 53.0455 1246.42 53.8855C1246.82 54.7055 1247.37 55.3555 1248.07 55.8355C1248.79 56.2955 1249.63 56.5255 1250.59 56.5255C1251.53 56.5255 1252.35 56.2955 1253.05 55.8355C1253.75 55.3555 1254.3 54.7055 1254.7 53.8855C1255.12 53.0455 1255.33 52.1155 1255.33 51.0955C1255.33 50.0755 1255.12 49.1655 1254.7 48.3655C1254.3 47.5455 1253.75 46.9055 1253.05 46.4455C1252.35 45.9655 1251.53 45.7255 1250.59 45.7255ZM1264.85 57.4855C1264.85 57.9255 1264.7 58.2955 1264.4 58.5955C1264.12 58.8755 1263.77 59.0155 1263.35 59.0155C1262.93 59.0155 1262.57 58.8755 1262.27 58.5955C1261.99 58.2955 1261.85 57.9255 1261.85 57.4855V38.3455C1261.85 37.9055 1262 37.5455 1262.3 37.2655C1262.6 36.9655 1262.96 36.8155 1263.38 36.8155C1263.82 36.8155 1264.17 36.9655 1264.43 37.2655C1264.71 37.5455 1264.85 37.9055 1264.85 38.3455V57.4855ZM1272.13 57.4855C1272.13 57.9255 1271.99 58.2955 1271.71 58.5955C1271.43 58.8755 1271.07 59.0155 1270.63 59.0155C1270.21 59.0155 1269.85 58.8755 1269.55 58.5955C1269.27 58.2955 1269.13 57.9255 1269.13 57.4855V44.6455C1269.13 44.2055 1269.27 43.8455 1269.55 43.5655C1269.85 43.2655 1270.21 43.1155 1270.63 43.1155C1271.07 43.1155 1271.43 43.2655 1271.71 43.5655C1271.99 43.8455 1272.13 44.2055 1272.13 44.6455V57.4855ZM1270.6 41.1355C1270.02 41.1355 1269.6 41.0355 1269.34 40.8355C1269.08 40.6155 1268.95 40.2555 1268.95 39.7555V39.2755C1268.95 38.7755 1269.09 38.4255 1269.37 38.2255C1269.65 38.0255 1270.07 37.9255 1270.63 37.9255C1271.23 37.9255 1271.66 38.0355 1271.92 38.2555C1272.18 38.4555 1272.31 38.7955 1272.31 39.2755V39.7555C1272.31 40.2755 1272.17 40.6355 1271.89 40.8355C1271.63 41.0355 1271.2 41.1355 1270.6 41.1355ZM1283.16 42.8755C1284.24 42.8755 1285.2 42.9955 1286.04 43.2355C1286.88 43.4555 1287.53 43.7755 1287.99 44.1955C1288.47 44.5955 1288.71 45.0655 1288.71 45.6055C1288.71 45.9455 1288.61 46.2655 1288.41 46.5655C1288.21 46.8455 1287.91 46.9855 1287.51 46.9855C1287.23 46.9855 1286.99 46.9355 1286.79 46.8355C1286.61 46.7355 1286.44 46.6155 1286.28 46.4755C1286.12 46.3355 1285.92 46.1955 1285.68 46.0555C1285.46 45.9355 1285.13 45.8355 1284.69 45.7555C1284.27 45.6755 1283.89 45.6355 1283.55 45.6355C1282.49 45.6355 1281.57 45.8755 1280.79 46.3555C1280.03 46.8355 1279.43 47.4855 1278.99 48.3055C1278.57 49.1255 1278.36 50.0555 1278.36 51.0955C1278.36 52.1355 1278.57 53.0655 1278.99 53.8855C1279.43 54.7055 1280.02 55.3555 1280.76 55.8355C1281.52 56.3155 1282.4 56.5555 1283.4 56.5555C1284 56.5555 1284.49 56.5155 1284.87 56.4355C1285.25 56.3355 1285.58 56.2155 1285.86 56.0755C1286.16 55.8955 1286.41 55.7155 1286.61 55.5355C1286.83 55.3355 1287.13 55.2355 1287.51 55.2355C1287.95 55.2355 1288.28 55.3755 1288.5 55.6555C1288.74 55.9155 1288.86 56.2455 1288.86 56.6455C1288.86 57.0855 1288.59 57.5155 1288.05 57.9355C1287.53 58.3355 1286.83 58.6655 1285.95 58.9255C1285.07 59.1855 1284.1 59.3155 1283.04 59.3155C1281.48 59.3155 1280.12 58.9555 1278.96 58.2355C1277.82 57.5155 1276.93 56.5355 1276.29 55.2955C1275.67 54.0555 1275.36 52.6555 1275.36 51.0955C1275.36 49.5155 1275.69 48.1155 1276.35 46.8955C1277.01 45.6555 1277.93 44.6755 1279.11 43.9555C1280.29 43.2355 1281.64 42.8755 1283.16 42.8755ZM1304.65 42.9955C1305.09 42.9955 1305.45 43.1455 1305.73 43.4455C1306.01 43.7255 1306.15 44.0855 1306.15 44.5255V57.4855C1306.15 57.9255 1306.01 58.2955 1305.73 58.5955C1305.45 58.8755 1305.09 59.0155 1304.65 59.0155C1304.23 59.0155 1303.87 58.8755 1303.57 58.5955C1303.29 58.2955 1303.15 57.9255 1303.15 57.4855V55.3255L1303.78 55.4155C1303.78 55.7755 1303.63 56.1755 1303.33 56.6155C1303.05 57.0555 1302.66 57.4855 1302.16 57.9055C1301.66 58.3055 1301.07 58.6455 1300.39 58.9255C1299.71 59.1855 1298.98 59.3155 1298.2 59.3155C1296.82 59.3155 1295.58 58.9655 1294.48 58.2655C1293.38 57.5455 1292.51 56.5655 1291.87 55.3255C1291.23 54.0855 1290.91 52.6755 1290.91 51.0955C1290.91 49.4755 1291.23 48.0555 1291.87 46.8355C1292.51 45.5955 1293.37 44.6255 1294.45 43.9255C1295.55 43.2255 1296.77 42.8755 1298.11 42.8755C1298.97 42.8755 1299.76 43.0155 1300.48 43.2955C1301.22 43.5755 1301.86 43.9355 1302.4 44.3755C1302.94 44.8155 1303.35 45.2855 1303.63 45.7855C1303.93 46.2655 1304.08 46.7255 1304.08 47.1655L1303.15 47.2555V44.5255C1303.15 44.1055 1303.29 43.7455 1303.57 43.4455C1303.87 43.1455 1304.23 42.9955 1304.65 42.9955ZM1298.53 56.5555C1299.47 56.5555 1300.3 56.3155 1301.02 55.8355C1301.74 55.3555 1302.3 54.7055 1302.7 53.8855C1303.1 53.0455 1303.3 52.1155 1303.3 51.0955C1303.3 50.0555 1303.1 49.1255 1302.7 48.3055C1302.3 47.4855 1301.74 46.8355 1301.02 46.3555C1300.3 45.8755 1299.47 45.6355 1298.53 45.6355C1297.61 45.6355 1296.79 45.8755 1296.07 46.3555C1295.37 46.8355 1294.81 47.4855 1294.39 48.3055C1293.99 49.1255 1293.79 50.0555 1293.79 51.0955C1293.79 52.1155 1293.99 53.0455 1294.39 53.8855C1294.81 54.7055 1295.37 55.3555 1296.07 55.8355C1296.79 56.3155 1297.61 56.5555 1298.53 56.5555ZM1310.15 43.4155H1317.2C1317.6 43.4155 1317.93 43.5555 1318.19 43.8355C1318.47 44.0955 1318.61 44.4255 1318.61 44.8255C1318.61 45.2055 1318.47 45.5255 1318.19 45.7855C1317.93 46.0455 1317.6 46.1755 1317.2 46.1755H1310.15C1309.75 46.1755 1309.41 46.0455 1309.13 45.7855C1308.87 45.5055 1308.74 45.1755 1308.74 44.7955C1308.74 44.3955 1308.87 44.0655 1309.13 43.8055C1309.41 43.5455 1309.75 43.4155 1310.15 43.4155ZM1313.3 39.5155C1313.74 39.5155 1314.1 39.6655 1314.38 39.9655C1314.66 40.2455 1314.8 40.6055 1314.8 41.0455V54.9655C1314.8 55.3255 1314.86 55.6155 1314.98 55.8355C1315.1 56.0555 1315.26 56.2055 1315.46 56.2855C1315.68 56.3655 1315.9 56.4055 1316.12 56.4055C1316.34 56.4055 1316.53 56.3655 1316.69 56.2855C1316.87 56.2055 1317.08 56.1655 1317.32 56.1655C1317.56 56.1655 1317.78 56.2755 1317.98 56.4955C1318.18 56.7155 1318.28 57.0155 1318.28 57.3955C1318.28 57.8755 1318.02 58.2655 1317.5 58.5655C1316.98 58.8655 1316.42 59.0155 1315.82 59.0155C1315.48 59.0155 1315.08 58.9855 1314.62 58.9255C1314.16 58.8655 1313.71 58.7155 1313.27 58.4755C1312.85 58.2355 1312.5 57.8555 1312.22 57.3355C1311.94 56.7955 1311.8 56.0455 1311.8 55.0855V41.0455C1311.8 40.6055 1311.94 40.2455 1312.22 39.9655C1312.52 39.6655 1312.88 39.5155 1313.3 39.5155ZM1324.75 57.4855C1324.75 57.9255 1324.61 58.2955 1324.33 58.5955C1324.05 58.8755 1323.69 59.0155 1323.25 59.0155C1322.83 59.0155 1322.47 58.8755 1322.17 58.5955C1321.89 58.2955 1321.75 57.9255 1321.75 57.4855V44.6455C1321.75 44.2055 1321.89 43.8455 1322.17 43.5655C1322.47 43.2655 1322.83 43.1155 1323.25 43.1155C1323.69 43.1155 1324.05 43.2655 1324.33 43.5655C1324.61 43.8455 1324.75 44.2055 1324.75 44.6455V57.4855ZM1323.22 41.1355C1322.64 41.1355 1322.22 41.0355 1321.96 40.8355C1321.7 40.6155 1321.57 40.2555 1321.57 39.7555V39.2755C1321.57 38.7755 1321.71 38.4255 1321.99 38.2255C1322.27 38.0255 1322.69 37.9255 1323.25 37.9255C1323.85 37.9255 1324.28 38.0355 1324.54 38.2555C1324.8 38.4555 1324.93 38.7955 1324.93 39.2755V39.7555C1324.93 40.2755 1324.79 40.6355 1324.51 40.8355C1324.25 41.0355 1323.82 41.1355 1323.22 41.1355ZM1343.9 51.1255C1343.9 52.7255 1343.55 54.1455 1342.85 55.3855C1342.15 56.6055 1341.2 57.5655 1340 58.2655C1338.8 58.9655 1337.45 59.3155 1335.95 59.3155C1334.45 59.3155 1333.1 58.9655 1331.9 58.2655C1330.7 57.5655 1329.74 56.6055 1329.02 55.3855C1328.32 54.1455 1327.97 52.7255 1327.97 51.1255C1327.97 49.5055 1328.32 48.0855 1329.02 46.8655C1329.74 45.6255 1330.7 44.6555 1331.9 43.9555C1333.1 43.2355 1334.45 42.8755 1335.95 42.8755C1337.45 42.8755 1338.8 43.2355 1340 43.9555C1341.2 44.6555 1342.15 45.6255 1342.85 46.8655C1343.55 48.0855 1343.9 49.5055 1343.9 51.1255ZM1340.9 51.1255C1340.9 50.0255 1340.68 49.0755 1340.24 48.2755C1339.8 47.4555 1339.2 46.8155 1338.44 46.3555C1337.7 45.8755 1336.87 45.6355 1335.95 45.6355C1335.03 45.6355 1334.19 45.8755 1333.43 46.3555C1332.67 46.8155 1332.07 47.4555 1331.63 48.2755C1331.19 49.0755 1330.97 50.0255 1330.97 51.1255C1330.97 52.1855 1331.19 53.1255 1331.63 53.9455C1332.07 54.7655 1332.67 55.4055 1333.43 55.8655C1334.19 56.3255 1335.03 56.5555 1335.95 56.5555C1336.87 56.5555 1337.7 56.3255 1338.44 55.8655C1339.2 55.4055 1339.8 54.7655 1340.24 53.9455C1340.68 53.1255 1340.9 52.1855 1340.9 51.1255ZM1355.43 42.8755C1356.85 42.8755 1357.95 43.1755 1358.73 43.7755C1359.51 44.3555 1360.05 45.1455 1360.35 46.1455C1360.67 47.1255 1360.83 48.2255 1360.83 49.4455V57.4855C1360.83 57.9255 1360.68 58.2955 1360.38 58.5955C1360.1 58.8755 1359.75 59.0155 1359.33 59.0155C1358.89 59.0155 1358.53 58.8755 1358.25 58.5955C1357.97 58.2955 1357.83 57.9255 1357.83 57.4855V49.4755C1357.83 48.7555 1357.73 48.1155 1357.53 47.5555C1357.33 46.9755 1356.98 46.5155 1356.48 46.1755C1356 45.8155 1355.32 45.6355 1354.44 45.6355C1353.62 45.6355 1352.9 45.8155 1352.28 46.1755C1351.66 46.5155 1351.17 46.9755 1350.81 47.5555C1350.47 48.1155 1350.3 48.7555 1350.3 49.4755V57.4855C1350.3 57.9255 1350.15 58.2955 1349.85 58.5955C1349.57 58.8755 1349.22 59.0155 1348.8 59.0155C1348.36 59.0155 1348 58.8755 1347.72 58.5955C1347.44 58.2955 1347.3 57.9255 1347.3 57.4855V44.7655C1347.3 44.3255 1347.44 43.9655 1347.72 43.6855C1348 43.3855 1348.36 43.2355 1348.8 43.2355C1349.22 43.2355 1349.57 43.3855 1349.85 43.6855C1350.15 43.9655 1350.3 44.3255 1350.3 44.7655V46.4455L1349.76 46.7455C1349.9 46.3055 1350.14 45.8655 1350.48 45.4255C1350.84 44.9655 1351.27 44.5455 1351.77 44.1655C1352.27 43.7655 1352.83 43.4555 1353.45 43.2355C1354.07 42.9955 1354.73 42.8755 1355.43 42.8755Z" fill="white"/>
<path d="M1511.19 37.9855C1511.63 37.9855 1511.98 38.1355 1512.24 38.4355C1512.5 38.7155 1512.63 39.0755 1512.63 39.5155V50.8855C1512.63 52.4855 1512.28 53.9155 1511.58 55.1755C1510.88 56.4355 1509.92 57.4255 1508.7 58.1455C1507.48 58.8455 1506.07 59.1955 1504.47 59.1955C1502.89 59.1955 1501.48 58.8455 1500.24 58.1455C1499.02 57.4255 1498.05 56.4355 1497.33 55.1755C1496.63 53.9155 1496.28 52.4855 1496.28 50.8855V39.5155C1496.28 39.0755 1496.43 38.7155 1496.73 38.4355C1497.03 38.1355 1497.42 37.9855 1497.9 37.9855C1498.28 37.9855 1498.62 38.1355 1498.92 38.4355C1499.24 38.7155 1499.4 39.0755 1499.4 39.5155V50.8855C1499.4 51.9455 1499.63 52.8755 1500.09 53.6755C1500.57 54.4555 1501.2 55.0755 1501.98 55.5355C1502.76 55.9755 1503.59 56.1955 1504.47 56.1955C1505.43 56.1955 1506.31 55.9755 1507.11 55.5355C1507.91 55.0755 1508.55 54.4555 1509.03 53.6755C1509.53 52.8755 1509.78 51.9455 1509.78 50.8855V39.5155C1509.78 39.0755 1509.9 38.7155 1510.14 38.4355C1510.4 38.1355 1510.75 37.9855 1511.19 37.9855ZM1520.67 57.4855C1520.65 57.9255 1520.48 58.2955 1520.16 58.5955C1519.86 58.8755 1519.5 59.0155 1519.08 59.0155C1518.62 59.0155 1518.24 58.8755 1517.94 58.5955C1517.66 58.2955 1517.52 57.9255 1517.52 57.4855V39.5455C1517.52 39.1055 1517.67 38.7455 1517.97 38.4655C1518.27 38.1655 1518.66 38.0155 1519.14 38.0155C1519.54 38.0155 1519.89 38.1655 1520.19 38.4655C1520.51 38.7455 1520.67 39.1055 1520.67 39.5455V57.4855ZM1525.12 62.9755C1524.82 62.9755 1524.52 62.8555 1524.22 62.6155C1523.92 62.3755 1523.77 62.0755 1523.77 61.7155C1523.77 61.4955 1523.83 61.2855 1523.95 61.0855L1536.4 35.8555C1536.54 35.5755 1536.71 35.3655 1536.91 35.2255C1537.13 35.0855 1537.37 35.0155 1537.63 35.0155C1537.91 35.0155 1538.19 35.1255 1538.47 35.3455C1538.77 35.5655 1538.92 35.8755 1538.92 36.2755C1538.92 36.4955 1538.87 36.7155 1538.77 36.9355L1526.32 62.1655C1526.18 62.4255 1526.01 62.6255 1525.81 62.7655C1525.61 62.9055 1525.38 62.9755 1525.12 62.9755ZM1557.01 37.9855C1557.45 37.9855 1557.8 38.1355 1558.06 38.4355C1558.32 38.7155 1558.45 39.0755 1558.45 39.5155V50.8855C1558.45 52.4855 1558.1 53.9155 1557.4 55.1755C1556.7 56.4355 1555.74 57.4255 1554.52 58.1455C1553.3 58.8455 1551.89 59.1955 1550.29 59.1955C1548.71 59.1955 1547.3 58.8455 1546.06 58.1455C1544.84 57.4255 1543.87 56.4355 1543.15 55.1755C1542.45 53.9155 1542.1 52.4855 1542.1 50.8855V39.5155C1542.1 39.0755 1542.25 38.7155 1542.55 38.4355C1542.85 38.1355 1543.24 37.9855 1543.72 37.9855C1544.1 37.9855 1544.44 38.1355 1544.74 38.4355C1545.06 38.7155 1545.22 39.0755 1545.22 39.5155V50.8855C1545.22 51.9455 1545.45 52.8755 1545.91 53.6755C1546.39 54.4555 1547.02 55.0755 1547.8 55.5355C1548.58 55.9755 1549.41 56.1955 1550.29 56.1955C1551.25 56.1955 1552.13 55.9755 1552.93 55.5355C1553.73 55.0755 1554.37 54.4555 1554.85 53.6755C1555.35 52.8755 1555.6 51.9455 1555.6 50.8855V39.5155C1555.6 39.0755 1555.72 38.7155 1555.96 38.4355C1556.22 38.1355 1556.57 37.9855 1557.01 37.9855ZM1577.11 37.9555C1577.51 37.9555 1577.84 38.1055 1578.1 38.4055C1578.38 38.6855 1578.52 38.9955 1578.52 39.3355C1578.52 39.6555 1578.41 39.9655 1578.19 40.2655L1571.89 48.6955L1570.18 46.3255L1575.91 38.6755C1576.25 38.1955 1576.65 37.9555 1577.11 37.9555ZM1563.43 37.9255C1563.91 37.9255 1564.32 38.1355 1564.66 38.5555L1578.19 56.7355C1578.41 56.9955 1578.52 57.2955 1578.52 57.6355C1578.52 58.1155 1578.35 58.4855 1578.01 58.7455C1577.67 59.0055 1577.33 59.1355 1576.99 59.1355C1576.51 59.1355 1576.11 58.9255 1575.79 58.5055L1562.23 40.3555C1562.01 40.0755 1561.9 39.7755 1561.9 39.4555C1561.9 39.0155 1562.06 38.6555 1562.38 38.3755C1562.7 38.0755 1563.05 37.9255 1563.43 37.9255ZM1563.22 59.1355C1562.84 59.1355 1562.52 59.0055 1562.26 58.7455C1562 58.4655 1561.87 58.1555 1561.87 57.8155C1561.87 57.4755 1561.99 57.1355 1562.23 56.7955L1568.59 48.1855L1570.24 50.6155L1564.45 58.4455C1564.13 58.9055 1563.72 59.1355 1563.22 59.1355ZM1599.4 38.0155C1600.86 38.0155 1602.15 38.2955 1603.27 38.8555C1604.39 39.3955 1605.32 40.1555 1606.06 41.1355C1606.82 42.0955 1607.39 43.2155 1607.77 44.4955C1608.15 45.7555 1608.34 47.0955 1608.34 48.5155C1608.34 50.4555 1608 52.2255 1607.32 53.8255C1606.64 55.4055 1605.64 56.6655 1604.32 57.6055C1603 58.5455 1601.36 59.0155 1599.4 59.0155H1592.08C1591.66 59.0155 1591.3 58.8755 1591 58.5955C1590.7 58.2955 1590.55 57.9255 1590.55 57.4855V39.5455C1590.55 39.1055 1590.7 38.7455 1591 38.4655C1591.3 38.1655 1591.66 38.0155 1592.08 38.0155H1599.4ZM1599.1 56.1355C1600.52 56.1355 1601.67 55.7855 1602.55 55.0855C1603.43 54.3855 1604.07 53.4655 1604.47 52.3255C1604.89 51.1655 1605.1 49.8955 1605.1 48.5155C1605.1 47.4955 1604.98 46.5355 1604.74 45.6355C1604.52 44.7155 1604.16 43.9055 1603.66 43.2055C1603.18 42.4855 1602.56 41.9255 1601.8 41.5255C1601.06 41.1055 1600.16 40.8955 1599.1 40.8955H1593.43L1593.7 40.6255V56.4355L1593.52 56.1355H1599.1ZM1619.28 59.3155C1617.62 59.3155 1616.18 58.9755 1614.96 58.2955C1613.74 57.5955 1612.79 56.6455 1612.11 55.4455C1611.45 54.2255 1611.12 52.8355 1611.12 51.2755C1611.12 49.5155 1611.47 48.0155 1612.17 46.7755C1612.89 45.5155 1613.82 44.5555 1614.96 43.8955C1616.1 43.2155 1617.31 42.8755 1618.59 42.8755C1619.57 42.8755 1620.5 43.0755 1621.38 43.4755C1622.26 43.8555 1623.04 44.3955 1623.72 45.0955C1624.42 45.7755 1624.97 46.5855 1625.37 47.5255C1625.77 48.4455 1625.98 49.4555 1626 50.5555C1625.98 50.9555 1625.82 51.2855 1625.52 51.5455C1625.22 51.8055 1624.87 51.9355 1624.47 51.9355H1612.8L1612.08 49.3855H1623.36L1622.79 49.9255V49.1755C1622.75 48.4755 1622.52 47.8655 1622.1 47.3455C1621.68 46.8055 1621.16 46.3955 1620.54 46.1155C1619.92 45.8155 1619.27 45.6655 1618.59 45.6655C1617.99 45.6655 1617.41 45.7655 1616.85 45.9655C1616.31 46.1455 1615.82 46.4455 1615.38 46.8655C1614.96 47.2855 1614.62 47.8455 1614.36 48.5455C1614.12 49.2255 1614 50.0755 1614 51.0955C1614 52.1955 1614.23 53.1555 1614.69 53.9755C1615.15 54.7955 1615.77 55.4355 1616.55 55.8955C1617.33 56.3355 1618.19 56.5555 1619.13 56.5555C1619.87 56.5555 1620.48 56.4855 1620.96 56.3455C1621.44 56.1855 1621.84 55.9955 1622.16 55.7755C1622.48 55.5555 1622.76 55.3455 1623 55.1455C1623.3 54.9655 1623.6 54.8755 1623.9 54.8755C1624.26 54.8755 1624.56 55.0055 1624.8 55.2655C1625.04 55.5055 1625.16 55.7955 1625.16 56.1355C1625.16 56.5755 1624.94 56.9755 1624.5 57.3355C1623.96 57.8555 1623.21 58.3155 1622.25 58.7155C1621.31 59.1155 1620.32 59.3155 1619.28 59.3155ZM1628.46 56.5555C1628.28 56.2755 1628.2 55.9555 1628.22 55.5955C1628.24 55.2155 1628.45 54.8955 1628.85 54.6355C1629.13 54.4555 1629.42 54.3855 1629.72 54.4255C1630.04 54.4455 1630.34 54.5955 1630.62 54.8755C1631.18 55.4955 1631.8 55.9855 1632.48 56.3455C1633.18 56.7055 1634.02 56.8855 1635 56.8855C1635.4 56.8655 1635.81 56.8055 1636.23 56.7055C1636.65 56.5855 1637.01 56.3855 1637.31 56.1055C1637.61 55.8055 1637.76 55.3755 1637.76 54.8155C1637.76 54.3155 1637.6 53.9155 1637.28 53.6155C1636.96 53.3155 1636.54 53.0755 1636.02 52.8955C1635.5 52.6955 1634.94 52.5155 1634.34 52.3555C1633.7 52.1755 1633.05 51.9755 1632.39 51.7555C1631.75 51.5355 1631.17 51.2555 1630.65 50.9155C1630.13 50.5555 1629.7 50.0955 1629.36 49.5355C1629.04 48.9755 1628.88 48.2855 1628.88 47.4655C1628.88 46.5255 1629.14 45.7155 1629.66 45.0355C1630.2 44.3555 1630.89 43.8255 1631.73 43.4455C1632.59 43.0655 1633.52 42.8755 1634.52 42.8755C1635.1 42.8755 1635.71 42.9555 1636.35 43.1155C1636.99 43.2555 1637.61 43.4855 1638.21 43.8055C1638.81 44.1255 1639.33 44.5455 1639.77 45.0655C1639.97 45.3255 1640.08 45.6355 1640.1 45.9955C1640.14 46.3555 1639.98 46.6755 1639.62 46.9555C1639.38 47.1555 1639.09 47.2455 1638.75 47.2255C1638.41 47.2055 1638.13 47.0955 1637.91 46.8955C1637.53 46.4155 1637.04 46.0455 1636.44 45.7855C1635.84 45.5055 1635.16 45.3655 1634.4 45.3655C1634.02 45.3655 1633.62 45.4255 1633.2 45.5455C1632.8 45.6455 1632.46 45.8355 1632.18 46.1155C1631.9 46.3955 1631.76 46.8055 1631.76 47.3455C1631.76 47.8455 1631.92 48.2455 1632.24 48.5455C1632.58 48.8455 1633.02 49.0955 1633.56 49.2955C1634.1 49.4955 1634.69 49.6755 1635.33 49.8355C1635.95 49.9955 1636.56 50.1855 1637.16 50.4055C1637.78 50.6255 1638.33 50.9155 1638.81 51.2755C1639.31 51.6155 1639.71 52.0655 1640.01 52.6255C1640.33 53.1655 1640.49 53.8555 1640.49 54.6955C1640.49 55.6755 1640.2 56.5155 1639.62 57.2155C1639.06 57.8955 1638.34 58.4155 1637.46 58.7755C1636.6 59.1355 1635.69 59.3155 1634.73 59.3155C1633.59 59.3155 1632.45 59.1155 1631.31 58.7155C1630.19 58.2955 1629.24 57.5755 1628.46 56.5555ZM1646.54 57.4855C1646.54 57.9255 1646.4 58.2955 1646.12 58.5955C1645.84 58.8755 1645.48 59.0155 1645.04 59.0155C1644.62 59.0155 1644.26 58.8755 1643.96 58.5955C1643.68 58.2955 1643.54 57.9255 1643.54 57.4855V44.6455C1643.54 44.2055 1643.68 43.8455 1643.96 43.5655C1644.26 43.2655 1644.62 43.1155 1645.04 43.1155C1645.48 43.1155 1645.84 43.2655 1646.12 43.5655C1646.4 43.8455 1646.54 44.2055 1646.54 44.6455V57.4855ZM1645.01 41.1355C1644.43 41.1355 1644.01 41.0355 1643.75 40.8355C1643.49 40.6155 1643.36 40.2555 1643.36 39.7555V39.2755C1643.36 38.7755 1643.5 38.4255 1643.78 38.2255C1644.06 38.0255 1644.48 37.9255 1645.04 37.9255C1645.64 37.9255 1646.07 38.0355 1646.33 38.2555C1646.59 38.4555 1646.72 38.7955 1646.72 39.2755V39.7555C1646.72 40.2755 1646.58 40.6355 1646.3 40.8355C1646.04 41.0355 1645.61 41.1355 1645.01 41.1355ZM1657.14 42.8755C1658 42.8755 1658.79 43.0155 1659.51 43.2955C1660.23 43.5755 1660.85 43.9355 1661.37 44.3755C1661.91 44.7955 1662.33 45.2355 1662.63 45.6955C1662.93 46.1555 1663.08 46.5555 1663.08 46.8955L1662.39 46.9255V44.5255C1662.39 44.1055 1662.53 43.7455 1662.81 43.4455C1663.09 43.1455 1663.45 42.9955 1663.89 42.9955C1664.33 42.9955 1664.69 43.1455 1664.97 43.4455C1665.25 43.7255 1665.39 44.0855 1665.39 44.5255V57.7555C1665.39 59.4555 1665.03 60.8355 1664.31 61.8955C1663.59 62.9755 1662.63 63.7655 1661.43 64.2655C1660.25 64.7655 1658.95 65.0155 1657.53 65.0155C1657.03 65.0155 1656.44 64.9455 1655.76 64.8055C1655.08 64.6855 1654.45 64.5355 1653.87 64.3555C1653.31 64.1755 1652.92 63.9955 1652.7 63.8155C1652.24 63.5755 1651.93 63.2955 1651.77 62.9755C1651.63 62.6555 1651.63 62.3355 1651.77 62.0155C1651.97 61.5755 1652.24 61.3055 1652.58 61.2055C1652.92 61.1055 1653.31 61.1355 1653.75 61.2955C1653.95 61.3555 1654.26 61.4655 1654.68 61.6255C1655.1 61.7855 1655.57 61.9255 1656.09 62.0455C1656.61 62.1855 1657.1 62.2555 1657.56 62.2555C1659.16 62.2555 1660.36 61.8855 1661.16 61.1455C1661.98 60.4055 1662.39 59.3955 1662.39 58.1155V55.4155L1662.72 55.6255C1662.66 56.0455 1662.47 56.4755 1662.15 56.9155C1661.85 57.3355 1661.45 57.7255 1660.95 58.0855C1660.45 58.4455 1659.87 58.7455 1659.21 58.9855C1658.57 59.2055 1657.91 59.3155 1657.23 59.3155C1655.81 59.3155 1654.54 58.9655 1653.42 58.2655C1652.3 57.5455 1651.41 56.5755 1650.75 55.3555C1650.09 54.1155 1649.76 52.6955 1649.76 51.0955C1649.76 49.4955 1650.09 48.0855 1650.75 46.8655C1651.41 45.6255 1652.29 44.6555 1653.39 43.9555C1654.51 43.2355 1655.76 42.8755 1657.14 42.8755ZM1657.59 45.6355C1656.61 45.6355 1655.75 45.8755 1655.01 46.3555C1654.27 46.8355 1653.69 47.4855 1653.27 48.3055C1652.85 49.1255 1652.64 50.0555 1652.64 51.0955C1652.64 52.1355 1652.85 53.0655 1653.27 53.8855C1653.69 54.7055 1654.27 55.3555 1655.01 55.8355C1655.75 56.3155 1656.61 56.5555 1657.59 56.5555C1658.57 56.5555 1659.43 56.3255 1660.17 55.8655C1660.91 55.3855 1661.49 54.7355 1661.91 53.9155C1662.33 53.0755 1662.54 52.1355 1662.54 51.0955C1662.54 50.0555 1662.33 49.1255 1661.91 48.3055C1661.49 47.4655 1660.91 46.8155 1660.17 46.3555C1659.43 45.8755 1658.57 45.6355 1657.59 45.6355ZM1677.69 42.8755C1679.11 42.8755 1680.21 43.1755 1680.99 43.7755C1681.77 44.3555 1682.31 45.1455 1682.61 46.1455C1682.93 47.1255 1683.09 48.2255 1683.09 49.4455V57.4855C1683.09 57.9255 1682.94 58.2955 1682.64 58.5955C1682.36 58.8755 1682.01 59.0155 1681.59 59.0155C1681.15 59.0155 1680.79 58.8755 1680.51 58.5955C1680.23 58.2955 1680.09 57.9255 1680.09 57.4855V49.4755C1680.09 48.7555 1679.99 48.1155 1679.79 47.5555C1679.59 46.9755 1679.24 46.5155 1678.74 46.1755C1678.26 45.8155 1677.58 45.6355 1676.7 45.6355C1675.88 45.6355 1675.16 45.8155 1674.54 46.1755C1673.92 46.5155 1673.43 46.9755 1673.07 47.5555C1672.73 48.1155 1672.56 48.7555 1672.56 49.4755V57.4855C1672.56 57.9255 1672.41 58.2955 1672.11 58.5955C1671.83 58.8755 1671.48 59.0155 1671.06 59.0155C1670.62 59.0155 1670.26 58.8755 1669.98 58.5955C1669.7 58.2955 1669.56 57.9255 1669.56 57.4855V44.7655C1669.56 44.3255 1669.7 43.9655 1669.98 43.6855C1670.26 43.3855 1670.62 43.2355 1671.06 43.2355C1671.48 43.2355 1671.83 43.3855 1672.11 43.6855C1672.41 43.9655 1672.56 44.3255 1672.56 44.7655V46.4455L1672.02 46.7455C1672.16 46.3055 1672.4 45.8655 1672.74 45.4255C1673.1 44.9655 1673.53 44.5455 1674.03 44.1655C1674.53 43.7655 1675.09 43.4555 1675.71 43.2355C1676.33 42.9955 1676.99 42.8755 1677.69 42.8755Z" fill="white"/>
<path d="M1871.43 59.3155C1869.91 59.3155 1868.49 59.0455 1867.17 58.5055C1865.85 57.9455 1864.69 57.1755 1863.69 56.1955C1862.71 55.1955 1861.94 54.0455 1861.38 52.7455C1860.82 51.4455 1860.54 50.0355 1860.54 48.5155C1860.54 46.9955 1860.82 45.5855 1861.38 44.2855C1861.94 42.9855 1862.71 41.8455 1863.69 40.8655C1864.69 39.8655 1865.85 39.0955 1867.17 38.5555C1868.49 37.9955 1869.91 37.7155 1871.43 37.7155C1872.41 37.7155 1873.36 37.8255 1874.28 38.0455C1875.2 38.2655 1876.03 38.5855 1876.77 39.0055C1877.03 39.1455 1877.22 39.3355 1877.34 39.5755C1877.46 39.7955 1877.52 40.0155 1877.52 40.2355C1877.52 40.6555 1877.38 41.0255 1877.1 41.3455C1876.84 41.6455 1876.51 41.7955 1876.11 41.7955C1875.97 41.7955 1875.82 41.7755 1875.66 41.7355C1875.52 41.6955 1875.39 41.6455 1875.27 41.5855C1874.71 41.3055 1874.11 41.0955 1873.47 40.9555C1872.83 40.7955 1872.15 40.7155 1871.43 40.7155C1869.99 40.7155 1868.69 41.0655 1867.53 41.7655C1866.37 42.4455 1865.45 43.3755 1864.77 44.5555C1864.11 45.7355 1863.78 47.0555 1863.78 48.5155C1863.78 49.9555 1864.11 51.2755 1864.77 52.4755C1865.45 53.6555 1866.37 54.5955 1867.53 55.2955C1868.69 55.9755 1869.99 56.3155 1871.43 56.3155C1872.13 56.3155 1872.87 56.2355 1873.65 56.0755C1874.43 55.8955 1875.09 55.6655 1875.63 55.3855L1875.39 56.1955V50.4955L1875.87 50.9155H1871.94C1871.5 50.9155 1871.13 50.7755 1870.83 50.4955C1870.55 50.2155 1870.41 49.8555 1870.41 49.4155C1870.41 48.9755 1870.55 48.6155 1870.83 48.3355C1871.13 48.0555 1871.5 47.9155 1871.94 47.9155H1877.13C1877.55 47.9155 1877.9 48.0655 1878.18 48.3655C1878.48 48.6455 1878.63 49.0055 1878.63 49.4455V56.1055C1878.63 56.4255 1878.55 56.6955 1878.39 56.9155C1878.23 57.1355 1878.05 57.3155 1877.85 57.4555C1876.95 58.0155 1875.95 58.4655 1874.85 58.8055C1873.77 59.1455 1872.63 59.3155 1871.43 59.3155ZM1883.74 59.0155C1883.3 59.0155 1882.94 58.8755 1882.66 58.5955C1882.38 58.2955 1882.24 57.9255 1882.24 57.4855V44.7655C1882.24 44.3255 1882.38 43.9655 1882.66 43.6855C1882.94 43.3855 1883.3 43.2355 1883.74 43.2355C1884.16 43.2355 1884.51 43.3855 1884.79 43.6855C1885.09 43.9655 1885.24 44.3255 1885.24 44.7655V48.1255L1884.94 46.8355C1885.1 46.2755 1885.34 45.7555 1885.66 45.2755C1886 44.7955 1886.4 44.3755 1886.86 44.0155C1887.32 43.6555 1887.83 43.3755 1888.39 43.1755C1888.97 42.9755 1889.57 42.8755 1890.19 42.8755C1890.71 42.8755 1891.16 43.0155 1891.54 43.2955C1891.92 43.5755 1892.11 43.9255 1892.11 44.3455C1892.11 44.8855 1891.97 45.2855 1891.69 45.5455C1891.41 45.7855 1891.1 45.9055 1890.76 45.9055C1890.46 45.9055 1890.17 45.8455 1889.89 45.7255C1889.61 45.5855 1889.28 45.5155 1888.9 45.5155C1888.48 45.5155 1888.05 45.6255 1887.61 45.8455C1887.17 46.0655 1886.77 46.3955 1886.41 46.8355C1886.05 47.2555 1885.76 47.7555 1885.54 48.3355C1885.34 48.9155 1885.24 49.5655 1885.24 50.2855V57.4855C1885.24 57.9255 1885.09 58.2955 1884.79 58.5955C1884.51 58.8755 1884.16 59.0155 1883.74 59.0155ZM1907.36 42.9955C1907.8 42.9955 1908.16 43.1455 1908.44 43.4455C1908.72 43.7255 1908.86 44.0855 1908.86 44.5255V57.4855C1908.86 57.9255 1908.72 58.2955 1908.44 58.5955C1908.16 58.8755 1907.8 59.0155 1907.36 59.0155C1906.94 59.0155 1906.58 58.8755 1906.28 58.5955C1906 58.2955 1905.86 57.9255 1905.86 57.4855V55.3255L1906.49 55.4155C1906.49 55.7755 1906.34 56.1755 1906.04 56.6155C1905.76 57.0555 1905.37 57.4855 1904.87 57.9055C1904.37 58.3055 1903.78 58.6455 1903.1 58.9255C1902.42 59.1855 1901.69 59.3155 1900.91 59.3155C1899.53 59.3155 1898.29 58.9655 1897.19 58.2655C1896.09 57.5455 1895.22 56.5655 1894.58 55.3255C1893.94 54.0855 1893.62 52.6755 1893.62 51.0955C1893.62 49.4755 1893.94 48.0555 1894.58 46.8355C1895.22 45.5955 1896.08 44.6255 1897.16 43.9255C1898.26 43.2255 1899.48 42.8755 1900.82 42.8755C1901.68 42.8755 1902.47 43.0155 1903.19 43.2955C1903.93 43.5755 1904.57 43.9355 1905.11 44.3755C1905.65 44.8155 1906.06 45.2855 1906.34 45.7855C1906.64 46.2655 1906.79 46.7255 1906.79 47.1655L1905.86 47.2555V44.5255C1905.86 44.1055 1906 43.7455 1906.28 43.4455C1906.58 43.1455 1906.94 42.9955 1907.36 42.9955ZM1901.24 56.5555C1902.18 56.5555 1903.01 56.3155 1903.73 55.8355C1904.45 55.3555 1905.01 54.7055 1905.41 53.8855C1905.81 53.0455 1906.01 52.1155 1906.01 51.0955C1906.01 50.0555 1905.81 49.1255 1905.41 48.3055C1905.01 47.4855 1904.45 46.8355 1903.73 46.3555C1903.01 45.8755 1902.18 45.6355 1901.24 45.6355C1900.32 45.6355 1899.5 45.8755 1898.78 46.3555C1898.08 46.8355 1897.52 47.4855 1897.1 48.3055C1896.7 49.1255 1896.5 50.0555 1896.5 51.0955C1896.5 52.1155 1896.7 53.0455 1897.1 53.8855C1897.52 54.7055 1898.08 55.3555 1898.78 55.8355C1899.5 56.3155 1900.32 56.5555 1901.24 56.5555ZM1921.01 42.9655C1922.41 42.9655 1923.65 43.3155 1924.73 44.0155C1925.83 44.7155 1926.7 45.6755 1927.34 46.8955C1927.98 48.0955 1928.3 49.4955 1928.3 51.0955C1928.3 52.6955 1927.98 54.1155 1927.34 55.3555C1926.7 56.5755 1925.84 57.5355 1924.76 58.2355C1923.68 58.9355 1922.46 59.2855 1921.1 59.2855C1920.34 59.2855 1919.62 59.1655 1918.94 58.9255C1918.26 58.6855 1917.66 58.3755 1917.14 57.9955C1916.62 57.5955 1916.19 57.1755 1915.85 56.7355C1915.53 56.2955 1915.33 55.8855 1915.25 55.5055L1916.06 55.1155V63.4855C1916.06 63.9255 1915.91 64.2855 1915.61 64.5655C1915.33 64.8655 1914.98 65.0155 1914.56 65.0155C1914.12 65.0155 1913.76 64.8655 1913.48 64.5655C1913.2 64.2855 1913.06 63.9255 1913.06 63.4855V44.7055C1913.06 44.2855 1913.2 43.9255 1913.48 43.6255C1913.76 43.3255 1914.12 43.1755 1914.56 43.1755C1914.98 43.1755 1915.33 43.3255 1915.61 43.6255C1915.91 43.9255 1916.06 44.2855 1916.06 44.7055V46.7755L1915.58 46.5055C1915.64 46.1255 1915.83 45.7355 1916.15 45.3355C1916.47 44.9155 1916.87 44.5255 1917.35 44.1655C1917.85 43.8055 1918.41 43.5155 1919.03 43.2955C1919.67 43.0755 1920.33 42.9655 1921.01 42.9655ZM1920.68 45.7255C1919.72 45.7255 1918.88 45.9655 1918.16 46.4455C1917.46 46.9055 1916.91 47.5355 1916.51 48.3355C1916.11 49.1355 1915.91 50.0555 1915.91 51.0955C1915.91 52.1155 1916.11 53.0455 1916.51 53.8855C1916.91 54.7055 1917.46 55.3555 1918.16 55.8355C1918.88 56.2955 1919.72 56.5255 1920.68 56.5255C1921.62 56.5255 1922.44 56.2955 1923.14 55.8355C1923.84 55.3555 1924.39 54.7055 1924.79 53.8855C1925.21 53.0455 1925.42 52.1155 1925.42 51.0955C1925.42 50.0755 1925.21 49.1655 1924.79 48.3655C1924.39 47.5455 1923.84 46.9055 1923.14 46.4455C1922.44 45.9655 1921.62 45.7255 1920.68 45.7255ZM1939.64 42.9655C1941.02 42.9655 1942.09 43.2655 1942.85 43.8655C1943.61 44.4455 1944.14 45.2355 1944.44 46.2355C1944.76 47.2355 1944.92 48.3355 1944.92 49.5355V57.4855C1944.92 57.9255 1944.77 58.2955 1944.47 58.5955C1944.19 58.8755 1943.84 59.0155 1943.42 59.0155C1942.98 59.0155 1942.62 58.8755 1942.34 58.5955C1942.06 58.2955 1941.92 57.9255 1941.92 57.4855V49.5355C1941.92 48.8355 1941.82 48.1955 1941.62 47.6155C1941.44 47.0355 1941.11 46.5755 1940.63 46.2355C1940.17 45.8955 1939.52 45.7255 1938.68 45.7255C1937.9 45.7255 1937.2 45.8955 1936.58 46.2355C1935.98 46.5755 1935.51 47.0355 1935.17 47.6155C1934.85 48.1955 1934.69 48.8355 1934.69 49.5355V57.4855C1934.69 57.9255 1934.54 58.2955 1934.24 58.5955C1933.96 58.8755 1933.61 59.0155 1933.19 59.0155C1932.75 59.0155 1932.39 58.8755 1932.11 58.5955C1931.83 58.2955 1931.69 57.9255 1931.69 57.4855V38.3455C1931.69 37.9055 1931.83 37.5455 1932.11 37.2655C1932.39 36.9655 1932.75 36.8155 1933.19 36.8155C1933.61 36.8155 1933.96 36.9655 1934.24 37.2655C1934.54 37.5455 1934.69 37.9055 1934.69 38.3455V46.5355L1934.15 46.8355C1934.29 46.3955 1934.52 45.9455 1934.84 45.4855C1935.18 45.0255 1935.59 44.6055 1936.07 44.2255C1936.57 43.8455 1937.12 43.5455 1937.72 43.3255C1938.32 43.0855 1938.96 42.9655 1939.64 42.9655ZM1951.92 57.4855C1951.92 57.9255 1951.78 58.2955 1951.5 58.5955C1951.22 58.8755 1950.86 59.0155 1950.42 59.0155C1950 59.0155 1949.64 58.8755 1949.34 58.5955C1949.06 58.2955 1948.92 57.9255 1948.92 57.4855V44.6455C1948.92 44.2055 1949.06 43.8455 1949.34 43.5655C1949.64 43.2655 1950 43.1155 1950.42 43.1155C1950.86 43.1155 1951.22 43.2655 1951.5 43.5655C1951.78 43.8455 1951.92 44.2055 1951.92 44.6455V57.4855ZM1950.39 41.1355C1949.81 41.1355 1949.39 41.0355 1949.13 40.8355C1948.87 40.6155 1948.74 40.2555 1948.74 39.7555V39.2755C1948.74 38.7755 1948.88 38.4255 1949.16 38.2255C1949.44 38.0255 1949.86 37.9255 1950.42 37.9255C1951.02 37.9255 1951.45 38.0355 1951.71 38.2555C1951.97 38.4555 1952.1 38.7955 1952.1 39.2755V39.7555C1952.1 40.2755 1951.96 40.6355 1951.68 40.8355C1951.42 41.0355 1950.99 41.1355 1950.39 41.1355ZM1955.02 56.5555C1954.84 56.2755 1954.76 55.9555 1954.78 55.5955C1954.8 55.2155 1955.01 54.8955 1955.41 54.6355C1955.69 54.4555 1955.98 54.3855 1956.28 54.4255C1956.6 54.4455 1956.9 54.5955 1957.18 54.8755C1957.74 55.4955 1958.36 55.9855 1959.04 56.3455C1959.74 56.7055 1960.58 56.8855 1961.56 56.8855C1961.96 56.8655 1962.37 56.8055 1962.79 56.7055C1963.21 56.5855 1963.57 56.3855 1963.87 56.1055C1964.17 55.8055 1964.32 55.3755 1964.32 54.8155C1964.32 54.3155 1964.16 53.9155 1963.84 53.6155C1963.52 53.3155 1963.1 53.0755 1962.58 52.8955C1962.06 52.6955 1961.5 52.5155 1960.9 52.3555C1960.26 52.1755 1959.61 51.9755 1958.95 51.7555C1958.31 51.5355 1957.73 51.2555 1957.21 50.9155C1956.69 50.5555 1956.26 50.0955 1955.92 49.5355C1955.6 48.9755 1955.44 48.2855 1955.44 47.4655C1955.44 46.5255 1955.7 45.7155 1956.22 45.0355C1956.76 44.3555 1957.45 43.8255 1958.29 43.4455C1959.15 43.0655 1960.08 42.8755 1961.08 42.8755C1961.66 42.8755 1962.27 42.9555 1962.91 43.1155C1963.55 43.2555 1964.17 43.4855 1964.77 43.8055C1965.37 44.1255 1965.89 44.5455 1966.33 45.0655C1966.53 45.3255 1966.64 45.6355 1966.66 45.9955C1966.7 46.3555 1966.54 46.6755 1966.18 46.9555C1965.94 47.1555 1965.65 47.2455 1965.31 47.2255C1964.97 47.2055 1964.69 47.0955 1964.47 46.8955C1964.09 46.4155 1963.6 46.0455 1963 45.7855C1962.4 45.5055 1961.72 45.3655 1960.96 45.3655C1960.58 45.3655 1960.18 45.4255 1959.76 45.5455C1959.36 45.6455 1959.02 45.8355 1958.74 46.1155C1958.46 46.3955 1958.32 46.8055 1958.32 47.3455C1958.32 47.8455 1958.48 48.2455 1958.8 48.5455C1959.14 48.8455 1959.58 49.0955 1960.12 49.2955C1960.66 49.4955 1961.25 49.6755 1961.89 49.8355C1962.51 49.9955 1963.12 50.1855 1963.72 50.4055C1964.34 50.6255 1964.89 50.9155 1965.37 51.2755C1965.87 51.6155 1966.27 52.0655 1966.57 52.6255C1966.89 53.1655 1967.05 53.8555 1967.05 54.6955C1967.05 55.6755 1966.76 56.5155 1966.18 57.2155C1965.62 57.8955 1964.9 58.4155 1964.02 58.7755C1963.16 59.1355 1962.25 59.3155 1961.29 59.3155C1960.15 59.3155 1959.01 59.1155 1957.87 58.7155C1956.75 58.2955 1955.8 57.5755 1955.02 56.5555ZM1978.2 42.9655C1979.68 42.9655 1980.82 43.3355 1981.62 44.0755C1982.42 44.7955 1982.95 45.7755 1983.21 47.0155L1982.73 46.8655L1982.94 46.3855C1983.2 45.8655 1983.59 45.3455 1984.11 44.8255C1984.65 44.2855 1985.29 43.8455 1986.03 43.5055C1986.77 43.1455 1987.56 42.9655 1988.4 42.9655C1989.78 42.9655 1990.85 43.2655 1991.61 43.8655C1992.37 44.4455 1992.9 45.2355 1993.2 46.2355C1993.5 47.2155 1993.65 48.3155 1993.65 49.5355V57.4855C1993.65 57.9255 1993.51 58.2955 1993.23 58.5955C1992.95 58.8755 1992.59 59.0155 1992.15 59.0155C1991.73 59.0155 1991.37 58.8755 1991.07 58.5955C1990.79 58.2955 1990.65 57.9255 1990.65 57.4855V49.5655C1990.65 48.8655 1990.55 48.2255 1990.35 47.6455C1990.17 47.0655 1989.84 46.6055 1989.36 46.2655C1988.9 45.9055 1988.26 45.7255 1987.44 45.7255C1986.66 45.7255 1985.96 45.9055 1985.34 46.2655C1984.74 46.6055 1984.27 47.0655 1983.93 47.6455C1983.59 48.2255 1983.42 48.8655 1983.42 49.5655V57.4855C1983.42 57.9255 1983.28 58.2955 1983 58.5955C1982.72 58.8755 1982.36 59.0155 1981.92 59.0155C1981.48 59.0155 1981.12 58.8755 1980.84 58.5955C1980.56 58.2955 1980.42 57.9255 1980.42 57.4855V49.5355C1980.42 48.8355 1980.32 48.1955 1980.12 47.6155C1979.94 47.0355 1979.62 46.5755 1979.16 46.2355C1978.7 45.8955 1978.06 45.7255 1977.24 45.7255C1976.46 45.7255 1975.77 45.8955 1975.17 46.2355C1974.57 46.5755 1974.1 47.0355 1973.76 47.6155C1973.44 48.1955 1973.28 48.8355 1973.28 49.5355V57.4855C1973.28 57.9255 1973.13 58.2955 1972.83 58.5955C1972.55 58.8755 1972.2 59.0155 1971.78 59.0155C1971.34 59.0155 1970.98 58.8755 1970.7 58.5955C1970.42 58.2955 1970.28 57.9255 1970.28 57.4855V44.7655C1970.28 44.3255 1970.42 43.9655 1970.7 43.6855C1970.98 43.3855 1971.34 43.2355 1971.78 43.2355C1972.2 43.2355 1972.55 43.3855 1972.83 43.6855C1973.13 43.9655 1973.28 44.3255 1973.28 44.7655V46.5355L1972.71 46.8655C1972.85 46.4255 1973.08 45.9755 1973.4 45.5155C1973.72 45.0555 1974.12 44.6355 1974.6 44.2555C1975.1 43.8755 1975.65 43.5655 1976.25 43.3255C1976.85 43.0855 1977.5 42.9655 1978.2 42.9655Z" fill="white"/>
<path d="M790.597 38.0155C792.057 38.0155 793.347 38.2955 794.467 38.8555C795.587 39.3955 796.517 40.1555 797.257 41.1355C798.017 42.0955 798.587 43.2155 798.967 44.4955C799.347 45.7555 799.537 47.0955 799.537 48.5155C799.537 50.4555 799.197 52.2255 798.517 53.8255C797.837 55.4055 796.837 56.6655 795.517 57.6055C794.197 58.5455 792.557 59.0155 790.597 59.0155H783.277C782.857 59.0155 782.497 58.8755 782.197 58.5955C781.897 58.2955 781.747 57.9255 781.747 57.4855V39.5455C781.747 39.1055 781.897 38.7455 782.197 38.4655C782.497 38.1655 782.857 38.0155 783.277 38.0155H790.597ZM790.297 56.1355C791.717 56.1355 792.867 55.7855 793.747 55.0855C794.627 54.3855 795.267 53.4655 795.667 52.3255C796.087 51.1655 796.297 49.8955 796.297 48.5155C796.297 47.4955 796.177 46.5355 795.937 45.6355C795.717 44.7155 795.357 43.9055 794.857 43.2055C794.377 42.4855 793.757 41.9255 792.997 41.5255C792.257 41.1055 791.357 40.8955 790.297 40.8955H784.627L784.897 40.6255V56.4355L784.717 56.1355H790.297ZM815.822 42.9955C816.262 42.9955 816.622 43.1455 816.902 43.4455C817.182 43.7255 817.322 44.0855 817.322 44.5255V57.4855C817.322 57.9255 817.182 58.2955 816.902 58.5955C816.622 58.8755 816.262 59.0155 815.822 59.0155C815.402 59.0155 815.042 58.8755 814.742 58.5955C814.462 58.2955 814.322 57.9255 814.322 57.4855V55.3255L814.952 55.4155C814.952 55.7755 814.802 56.1755 814.502 56.6155C814.222 57.0555 813.832 57.4855 813.332 57.9055C812.832 58.3055 812.242 58.6455 811.562 58.9255C810.882 59.1855 810.152 59.3155 809.372 59.3155C807.992 59.3155 806.752 58.9655 805.652 58.2655C804.552 57.5455 803.682 56.5655 803.042 55.3255C802.402 54.0855 802.082 52.6755 802.082 51.0955C802.082 49.4755 802.402 48.0555 803.042 46.8355C803.682 45.5955 804.542 44.6255 805.622 43.9255C806.722 43.2255 807.942 42.8755 809.282 42.8755C810.142 42.8755 810.932 43.0155 811.652 43.2955C812.392 43.5755 813.032 43.9355 813.572 44.3755C814.112 44.8155 814.522 45.2855 814.802 45.7855C815.102 46.2655 815.252 46.7255 815.252 47.1655L814.322 47.2555V44.5255C814.322 44.1055 814.462 43.7455 814.742 43.4455C815.042 43.1455 815.402 42.9955 815.822 42.9955ZM809.702 56.5555C810.642 56.5555 811.472 56.3155 812.192 55.8355C812.912 55.3555 813.472 54.7055 813.872 53.8855C814.272 53.0455 814.472 52.1155 814.472 51.0955C814.472 50.0555 814.272 49.1255 813.872 48.3055C813.472 47.4855 812.912 46.8355 812.192 46.3555C811.472 45.8755 810.642 45.6355 809.702 45.6355C808.782 45.6355 807.962 45.8755 807.242 46.3555C806.542 46.8355 805.982 47.4855 805.562 48.3055C805.162 49.1255 804.962 50.0555 804.962 51.0955C804.962 52.1155 805.162 53.0455 805.562 53.8855C805.982 54.7055 806.542 55.3555 807.242 55.8355C807.962 56.3155 808.782 56.5555 809.702 56.5555ZM821.315 43.4155H828.365C828.765 43.4155 829.095 43.5555 829.355 43.8355C829.635 44.0955 829.775 44.4255 829.775 44.8255C829.775 45.2055 829.635 45.5255 829.355 45.7855C829.095 46.0455 828.765 46.1755 828.365 46.1755H821.315C820.915 46.1755 820.575 46.0455 820.295 45.7855C820.035 45.5055 819.905 45.1755 819.905 44.7955C819.905 44.3955 820.035 44.0655 820.295 43.8055C820.575 43.5455 820.915 43.4155 821.315 43.4155ZM824.465 39.5155C824.905 39.5155 825.265 39.6655 825.545 39.9655C825.825 40.2455 825.965 40.6055 825.965 41.0455V54.9655C825.965 55.3255 826.025 55.6155 826.145 55.8355C826.265 56.0555 826.425 56.2055 826.625 56.2855C826.845 56.3655 827.065 56.4055 827.285 56.4055C827.505 56.4055 827.695 56.3655 827.855 56.2855C828.035 56.2055 828.245 56.1655 828.485 56.1655C828.725 56.1655 828.945 56.2755 829.145 56.4955C829.345 56.7155 829.445 57.0155 829.445 57.3955C829.445 57.8755 829.185 58.2655 828.665 58.5655C828.145 58.8655 827.585 59.0155 826.985 59.0155C826.645 59.0155 826.245 58.9855 825.785 58.9255C825.325 58.8655 824.875 58.7155 824.435 58.4755C824.015 58.2355 823.665 57.8555 823.385 57.3355C823.105 56.7955 822.965 56.0455 822.965 55.0855V41.0455C822.965 40.6055 823.105 40.2455 823.385 39.9655C823.685 39.6655 824.045 39.5155 824.465 39.5155ZM846.027 42.9955C846.467 42.9955 846.827 43.1455 847.107 43.4455C847.387 43.7255 847.527 44.0855 847.527 44.5255V57.4855C847.527 57.9255 847.387 58.2955 847.107 58.5955C846.827 58.8755 846.467 59.0155 846.027 59.0155C845.607 59.0155 845.247 58.8755 844.947 58.5955C844.667 58.2955 844.527 57.9255 844.527 57.4855V55.3255L845.157 55.4155C845.157 55.7755 845.007 56.1755 844.707 56.6155C844.427 57.0555 844.037 57.4855 843.537 57.9055C843.037 58.3055 842.447 58.6455 841.767 58.9255C841.087 59.1855 840.357 59.3155 839.577 59.3155C838.197 59.3155 836.957 58.9655 835.857 58.2655C834.757 57.5455 833.887 56.5655 833.247 55.3255C832.607 54.0855 832.287 52.6755 832.287 51.0955C832.287 49.4755 832.607 48.0555 833.247 46.8355C833.887 45.5955 834.747 44.6255 835.827 43.9255C836.927 43.2255 838.147 42.8755 839.487 42.8755C840.347 42.8755 841.137 43.0155 841.857 43.2955C842.597 43.5755 843.237 43.9355 843.777 44.3755C844.317 44.8155 844.727 45.2855 845.007 45.7855C845.307 46.2655 845.457 46.7255 845.457 47.1655L844.527 47.2555V44.5255C844.527 44.1055 844.667 43.7455 844.947 43.4455C845.247 43.1455 845.607 42.9955 846.027 42.9955ZM839.907 56.5555C840.847 56.5555 841.677 56.3155 842.397 55.8355C843.117 55.3555 843.677 54.7055 844.077 53.8855C844.477 53.0455 844.677 52.1155 844.677 51.0955C844.677 50.0555 844.477 49.1255 844.077 48.3055C843.677 47.4855 843.117 46.8355 842.397 46.3555C841.677 45.8755 840.847 45.6355 839.907 45.6355C838.987 45.6355 838.167 45.8755 837.447 46.3555C836.747 46.8355 836.187 47.4855 835.767 48.3055C835.367 49.1255 835.167 50.0555 835.167 51.0955C835.167 52.1155 835.367 53.0455 835.767 53.8855C836.187 54.7055 836.747 55.3555 837.447 55.8355C838.167 56.3155 838.987 56.5555 839.907 56.5555ZM859.68 42.8755C861.08 42.8755 862.32 43.2255 863.4 43.9255C864.5 44.6255 865.37 45.5955 866.01 46.8355C866.65 48.0555 866.97 49.4655 866.97 51.0655C866.97 52.6655 866.65 54.0855 866.01 55.3255C865.37 56.5655 864.51 57.5455 863.43 58.2655C862.35 58.9655 861.13 59.3155 859.77 59.3155C859.01 59.3155 858.29 59.1955 857.61 58.9555C856.93 58.6955 856.33 58.3755 855.81 57.9955C855.29 57.5955 854.86 57.1755 854.52 56.7355C854.2 56.2955 854 55.8855 853.92 55.5055L854.73 55.1155V57.7255C854.73 58.1455 854.58 58.5055 854.28 58.8055C854 59.0855 853.65 59.2255 853.23 59.2255C852.79 59.2255 852.43 59.0855 852.15 58.8055C851.87 58.5255 851.73 58.1655 851.73 57.7255V38.3455C851.73 37.9055 851.87 37.5455 852.15 37.2655C852.43 36.9655 852.79 36.8155 853.23 36.8155C853.65 36.8155 854 36.9655 854.28 37.2655C854.58 37.5455 854.73 37.9055 854.73 38.3455V46.7755L854.25 46.5055C854.31 46.1255 854.5 45.7355 854.82 45.3355C855.14 44.9155 855.54 44.5155 856.02 44.1355C856.52 43.7555 857.08 43.4555 857.7 43.2355C858.34 42.9955 859 42.8755 859.68 42.8755ZM859.35 45.6355C858.39 45.6355 857.55 45.8755 856.83 46.3555C856.13 46.8355 855.58 47.4855 855.18 48.3055C854.78 49.1055 854.58 50.0255 854.58 51.0655C854.58 52.1055 854.78 53.0455 855.18 53.8855C855.58 54.7055 856.13 55.3555 856.83 55.8355C857.55 56.3155 858.39 56.5555 859.35 56.5555C860.29 56.5555 861.11 56.3155 861.81 55.8355C862.51 55.3555 863.06 54.6955 863.46 53.8555C863.88 53.0155 864.09 52.0855 864.09 51.0655C864.09 50.0255 863.88 49.1055 863.46 48.3055C863.06 47.4855 862.51 46.8355 861.81 46.3555C861.11 45.8755 860.29 45.6355 859.35 45.6355ZM883.293 42.9955C883.733 42.9955 884.093 43.1455 884.373 43.4455C884.653 43.7255 884.793 44.0855 884.793 44.5255V57.4855C884.793 57.9255 884.653 58.2955 884.373 58.5955C884.093 58.8755 883.733 59.0155 883.293 59.0155C882.873 59.0155 882.513 58.8755 882.213 58.5955C881.933 58.2955 881.793 57.9255 881.793 57.4855V55.3255L882.423 55.4155C882.423 55.7755 882.273 56.1755 881.973 56.6155C881.693 57.0555 881.303 57.4855 880.803 57.9055C880.303 58.3055 879.713 58.6455 879.033 58.9255C878.353 59.1855 877.623 59.3155 876.843 59.3155C875.463 59.3155 874.223 58.9655 873.123 58.2655C872.023 57.5455 871.153 56.5655 870.513 55.3255C869.873 54.0855 869.553 52.6755 869.553 51.0955C869.553 49.4755 869.873 48.0555 870.513 46.8355C871.153 45.5955 872.013 44.6255 873.093 43.9255C874.193 43.2255 875.413 42.8755 876.753 42.8755C877.613 42.8755 878.403 43.0155 879.123 43.2955C879.863 43.5755 880.503 43.9355 881.043 44.3755C881.583 44.8155 881.993 45.2855 882.273 45.7855C882.573 46.2655 882.723 46.7255 882.723 47.1655L881.793 47.2555V44.5255C881.793 44.1055 881.933 43.7455 882.213 43.4455C882.513 43.1455 882.873 42.9955 883.293 42.9955ZM877.173 56.5555C878.113 56.5555 878.943 56.3155 879.663 55.8355C880.383 55.3555 880.943 54.7055 881.343 53.8855C881.743 53.0455 881.943 52.1155 881.943 51.0955C881.943 50.0555 881.743 49.1255 881.343 48.3055C880.943 47.4855 880.383 46.8355 879.663 46.3555C878.943 45.8755 878.113 45.6355 877.173 45.6355C876.253 45.6355 875.433 45.8755 874.713 46.3555C874.013 46.8355 873.453 47.4855 873.033 48.3055C872.633 49.1255 872.433 50.0555 872.433 51.0955C872.433 52.1155 872.633 53.0455 873.033 53.8855C873.453 54.7055 874.013 55.3555 874.713 55.8355C875.433 56.3155 876.253 56.5555 877.173 56.5555ZM888.066 56.5555C887.886 56.2755 887.806 55.9555 887.826 55.5955C887.846 55.2155 888.056 54.8955 888.456 54.6355C888.736 54.4555 889.026 54.3855 889.326 54.4255C889.646 54.4455 889.946 54.5955 890.226 54.8755C890.786 55.4955 891.406 55.9855 892.086 56.3455C892.786 56.7055 893.626 56.8855 894.606 56.8855C895.006 56.8655 895.416 56.8055 895.836 56.7055C896.256 56.5855 896.616 56.3855 896.916 56.1055C897.216 55.8055 897.366 55.3755 897.366 54.8155C897.366 54.3155 897.206 53.9155 896.886 53.6155C896.566 53.3155 896.146 53.0755 895.626 52.8955C895.106 52.6955 894.546 52.5155 893.946 52.3555C893.306 52.1755 892.656 51.9755 891.996 51.7555C891.356 51.5355 890.776 51.2555 890.256 50.9155C889.736 50.5555 889.306 50.0955 888.966 49.5355C888.646 48.9755 888.486 48.2855 888.486 47.4655C888.486 46.5255 888.746 45.7155 889.266 45.0355C889.806 44.3555 890.496 43.8255 891.336 43.4455C892.196 43.0655 893.126 42.8755 894.126 42.8755C894.706 42.8755 895.316 42.9555 895.956 43.1155C896.596 43.2555 897.216 43.4855 897.816 43.8055C898.416 44.1255 898.936 44.5455 899.376 45.0655C899.576 45.3255 899.686 45.6355 899.706 45.9955C899.746 46.3555 899.586 46.6755 899.226 46.9555C898.986 47.1555 898.696 47.2455 898.356 47.2255C898.016 47.2055 897.736 47.0955 897.516 46.8955C897.136 46.4155 896.646 46.0455 896.046 45.7855C895.446 45.5055 894.766 45.3655 894.006 45.3655C893.626 45.3655 893.226 45.4255 892.806 45.5455C892.406 45.6455 892.066 45.8355 891.786 46.1155C891.506 46.3955 891.366 46.8055 891.366 47.3455C891.366 47.8455 891.526 48.2455 891.846 48.5455C892.186 48.8455 892.626 49.0955 893.166 49.2955C893.706 49.4955 894.296 49.6755 894.936 49.8355C895.556 49.9955 896.166 50.1855 896.766 50.4055C897.386 50.6255 897.936 50.9155 898.416 51.2755C898.916 51.6155 899.316 52.0655 899.616 52.6255C899.936 53.1655 900.096 53.8555 900.096 54.6955C900.096 55.6755 899.806 56.5155 899.226 57.2155C898.666 57.8955 897.946 58.4155 897.066 58.7755C896.206 59.1355 895.296 59.3155 894.336 59.3155C893.196 59.3155 892.056 59.1155 890.916 58.7155C889.796 58.2955 888.846 57.5755 888.066 56.5555ZM910.672 59.3155C909.012 59.3155 907.572 58.9755 906.352 58.2955C905.132 57.5955 904.182 56.6455 903.502 55.4455C902.842 54.2255 902.512 52.8355 902.512 51.2755C902.512 49.5155 902.862 48.0155 903.562 46.7755C904.282 45.5155 905.212 44.5555 906.352 43.8955C907.492 43.2155 908.702 42.8755 909.982 42.8755C910.962 42.8755 911.892 43.0755 912.772 43.4755C913.652 43.8555 914.432 44.3955 915.112 45.0955C915.812 45.7755 916.362 46.5855 916.762 47.5255C917.162 48.4455 917.372 49.4555 917.392 50.5555C917.372 50.9555 917.212 51.2855 916.912 51.5455C916.612 51.8055 916.262 51.9355 915.862 51.9355H904.192L903.472 49.3855H914.752L914.182 49.9255V49.1755C914.142 48.4755 913.912 47.8655 913.492 47.3455C913.072 46.8055 912.552 46.3955 911.932 46.1155C911.312 45.8155 910.662 45.6655 909.982 45.6655C909.382 45.6655 908.802 45.7655 908.242 45.9655C907.702 46.1455 907.212 46.4455 906.772 46.8655C906.352 47.2855 906.012 47.8455 905.752 48.5455C905.512 49.2255 905.392 50.0755 905.392 51.0955C905.392 52.1955 905.622 53.1555 906.082 53.9755C906.542 54.7955 907.162 55.4355 907.942 55.8955C908.722 56.3355 909.582 56.5555 910.522 56.5555C911.262 56.5555 911.872 56.4855 912.352 56.3455C912.832 56.1855 913.232 55.9955 913.552 55.7755C913.872 55.5555 914.152 55.3455 914.392 55.1455C914.692 54.9655 914.992 54.8755 915.292 54.8755C915.652 54.8755 915.952 55.0055 916.192 55.2655C916.432 55.5055 916.552 55.7955 916.552 56.1355C916.552 56.5755 916.332 56.9755 915.892 57.3355C915.352 57.8555 914.602 58.3155 913.642 58.7155C912.702 59.1155 911.712 59.3155 910.672 59.3155Z" fill="white"/>
<line x1="358.468" y1="0.666844" x2="311.324" y2="95.6568" stroke="white" stroke-width="3"/>
<line x1="696.468" y1="0.666844" x2="649.324" y2="95.6568" stroke="white" stroke-width="3"/>
<line x1="1051.47" y1="0.666844" x2="1004.32" y2="95.6568" stroke="white" stroke-width="3"/>
<line x1="1445.47" y1="0.666844" x2="1398.32" y2="95.6568" stroke="white" stroke-width="3"/>
<line x1="1783.47" y1="0.666844" x2="1736.32" y2="95.6568" stroke="white" stroke-width="3"/>
</svg>
